<?xml version="1.0" encoding="utf-8"?>
<!-- Generator: Adobe Illustrator 17.0.0, SVG Export Plug-In . SVG Version: 6.00 Build 0)  -->
<!DOCTYPE svg PUBLIC "-//W3C//DTD SVG 1.1 Basic//EN" "http://www.w3.org/Graphics/SVG/1.1/DTD/svg11-basic.dtd">
<svg version="1.1" baseProfile="basic" id="Layer_1"
	 xmlns="http://www.w3.org/2000/svg" xmlns:xlink="http://www.w3.org/1999/xlink" x="0px" y="0px" width="369.422px"
	 height="608.029px" viewBox="0 0 369.422 608.029" xml:space="preserve">
<rect x="-1053.113" y="-191.971" fill="#00E5FF" width="3000" height="800"/>
<g>
	<rect x="8.507" y="357.598" fill="#37474F" width="352.407" height="253.432"/>
	<path fill="#263238" d="M369.422,364.487l-88.983-87.896l-46.885-72.796l-48.843,31.458l-48.844-31.458l-46.885,72.796L0,364.487
		H369.422z M184.711,305.729l10.861,16.864l-10.861,10.996l-10.861-10.996L184.711,305.729z"/>
	<polygon fill="#263238" points="135.837,188.949 184.702,0 233.568,188.949 	"/>
	<rect x="135.837" y="188.949" fill="#37474F" width="97.731" height="419.797"/>
	<rect x="165.291" y="241.025" fill="#212121" width="38.839" height="49.461"/>
	<rect x="8.507" y="371.082" fill="#441831" width="352.407" height="12.936"/>
	<rect x="8.507" y="486.977" fill="#441831" width="352.407" height="12.936"/>
	<rect x="35.013" y="371.082" fill="#441831" width="12.936" height="119.7"/>
	<rect x="102.927" y="371.082" fill="#441831" width="12.936" height="119.7"/>
	
		<rect x="34.134" y="466.206" transform="matrix(-0.5605 -0.8282 0.8282 -0.5605 -296.1192 788.1926)" fill="#441831" width="53.92" height="12.936"/>
	
		<rect x="63.299" y="466.206" transform="matrix(0.5605 -0.8282 0.8282 0.5605 -351.7837 282.5016)" fill="#441831" width="53.92" height="12.936"/>
	
		<rect x="143.16" y="466.206" transform="matrix(-0.5605 -0.8282 0.8282 -0.5605 -125.987 878.4846)" fill="#441831" width="53.92" height="12.936"/>
	
		<rect x="172.325" y="466.206" transform="matrix(0.5605 -0.8282 0.8282 0.5605 -303.8641 372.7938)" fill="#441831" width="53.92" height="12.936"/>
	
		<rect x="251.522" y="466.206" transform="matrix(-0.5605 -0.8282 0.8282 -0.5605 43.1098 968.2271)" fill="#441831" width="53.92" height="12.936"/>
	
		<rect x="280.687" y="466.206" transform="matrix(0.5605 -0.8282 0.8282 0.5605 -256.2364 462.5362)" fill="#441831" width="53.92" height="12.936"/>
	<rect x="143.224" y="371.082" fill="#441831" width="12.936" height="119.7"/>
	<rect x="213.262" y="371.082" fill="#441831" width="12.936" height="119.7"/>
	<rect x="252.64" y="371.082" fill="#441831" width="12.936" height="119.7"/>
	<rect x="320.553" y="371.082" fill="#441831" width="12.936" height="119.7"/>
	
		<rect x="47.949" y="397.587" fill="#212121" stroke="#441831" stroke-width="14" stroke-miterlimit="10" width="54.977" height="64.109"/>
	
		<rect x="265.576" y="397.587" fill="#212121" stroke="#441831" stroke-width="14" stroke-miterlimit="10" width="54.977" height="64.109"/>
	
		<rect x="156.16" y="397.587" fill="#212121" stroke="#441831" stroke-width="14" stroke-miterlimit="10" width="57.102" height="64.109"/>
	<path fill="#263238" d="M65.291,562.117c0,4.163-3.375,7.538-7.538,7.538H39.118c-4.163,0-7.538-3.375-7.538-7.538v-6.7
		c0-4.163,3.375-7.538,7.538-7.538h18.635c4.163,0,7.538,3.375,7.538,7.538V562.117z"/>
	<path fill="#263238" d="M108.005,562.117c0,4.163-3.375,7.538-7.538,7.538H81.832c-4.163,0-7.538-3.375-7.538-7.538v-6.7
		c0-4.163,3.375-7.538,7.538-7.538h18.635c4.163,0,7.538,3.375,7.538,7.538V562.117z"/>
	<path fill="#263238" d="M85.81,588.709c0,4.163-3.375,7.538-7.538,7.538H59.637c-4.163,0-7.538-3.375-7.538-7.538v-6.7
		c0-4.163,3.375-7.538,7.538-7.538h18.635c4.163,0,7.538,3.375,7.538,7.538V588.709z"/>
</g>
</svg>
