<?xml version="1.0" encoding="utf-8"?>
<!-- Generator: Adobe Illustrator 17.0.0, SVG Export Plug-In . SVG Version: 6.00 Build 0)  -->
<!DOCTYPE svg PUBLIC "-//W3C//DTD SVG 1.1//EN" "http://www.w3.org/Graphics/SVG/1.1/DTD/svg11.dtd">
<svg version="1.1" id="Layer_1" xmlns="http://www.w3.org/2000/svg" xmlns:xlink="http://www.w3.org/1999/xlink" x="0px" y="0px"
	 width="548.204px" height="789.996px" viewBox="0 0 548.204 789.996" enable-background="new 0 0 548.204 789.996"
	 xml:space="preserve">
<g>
	<rect x="96.145" y="623.662" fill="#212121" width="82" height="166.333"/>
	<polygon fill="#823737" points="442.599,171.14 533.606,373.982 548.204,367.432 455.749,161.363 455.76,161.35 455.733,161.327 
		455.717,161.291 455.7,161.299 284.313,14.198 274.102,1.877 263.891,14.198 92.504,161.299 92.487,161.291 92.471,161.327 
		92.444,161.35 92.455,161.363 0,367.432 14.598,373.982 105.605,171.14 274.102,26.52 	"/>
	<g>
		<polygon fill="#FFE082" points="442.606,171.077 274.109,26.457 105.611,171.077 28.978,341.882 28.978,789.996 519.645,789.996 
			519.645,342.788 		"/>
	</g>
	<rect x="101.645" y="170.246" fill="#823737" width="344.75" height="9.5"/>
	<path fill="#212121" stroke="#823737" stroke-width="7" stroke-linejoin="round" stroke-miterlimit="10" d="M94.622,385.249
		c-15.494,0-28.055,12.561-28.055,28.055v109.21h56.11v-109.21C122.677,397.81,110.117,385.249,94.622,385.249z"/>
	<path fill="#FFFFFF" d="M66.145,413.871c-0.021-0.007-0.007-0.189,0.04-0.512c0.372-2.577,2.816-14.142,6.148-17.863
		c3.75-4.188,11.688-8.688,20.75-8.625s25.188,4.438,27.688,18s2.313,24.063,2.313,24.063H66.567"/>
	<rect x="24.895" y="328.246" fill="#823737" width="496.75" height="9.5"/>
	<rect x="24.895" y="575.246" fill="#823737" width="496.75" height="9.5"/>
	
		<rect x="115.562" y="203.496" fill="#212121" stroke="#823737" stroke-width="7" stroke-linejoin="round" stroke-miterlimit="10" width="61.75" height="98.25"/>
	
		<rect x="246.257" y="643.537" fill="#212121" stroke="#823737" stroke-width="7" stroke-linejoin="round" stroke-miterlimit="10" width="61.75" height="98.25"/>
	
		<rect x="333.282" y="643.537" fill="#212121" stroke="#823737" stroke-width="7" stroke-linejoin="round" stroke-miterlimit="10" width="61.75" height="98.25"/>
	
		<rect x="420.307" y="643.537" fill="#212121" stroke="#823737" stroke-width="7" stroke-linejoin="round" stroke-miterlimit="10" width="61.75" height="98.25"/>
	
		<rect x="243.437" y="203.496" fill="#212121" stroke="#823737" stroke-width="7" stroke-linejoin="round" stroke-miterlimit="10" width="61.75" height="98.25"/>
	
		<rect x="243.88" y="71.996" fill="#212121" stroke="#823737" stroke-width="7" stroke-linejoin="round" stroke-miterlimit="10" width="55.78" height="74.75"/>
	
		<rect x="368.645" y="203.496" fill="#212121" stroke="#823737" stroke-width="7" stroke-linejoin="round" stroke-miterlimit="10" width="61.75" height="98.25"/>
	<path fill="none" stroke="#823737" stroke-width="7" stroke-linejoin="round" stroke-miterlimit="10" d="M94.622,385.749
		c-15.494,0-28.055,12.561-28.055,28.055v109.21h56.11v-109.21C122.677,398.31,110.117,385.749,94.622,385.749z"/>
	<rect x="76.645" y="623.662" fill="#212121" width="121" height="166.333"/>
	<g>
		<path fill="#FFFFFF" d="M289.478,82.496v53.667h-35.052V82.496H289.478 M296.478,75.496h-49.052v67.667h49.052V75.496
			L296.478,75.496z"/>
	</g>
	
		<line fill="none" stroke="#FFFFFF" stroke-width="7" stroke-linejoin="round" stroke-miterlimit="10" x1="247.426" y1="109.329" x2="296.478" y2="109.329"/>
	<g>
		<g>
			<path fill="#FFFFFF" d="M166.728,213.912v77.375h-40.833v-77.375H166.728 M173.728,206.912h-54.833v91.375h54.833V206.912
				L173.728,206.912z"/>
		</g>
		
			<line fill="none" stroke="#FFFFFF" stroke-width="5" stroke-linejoin="round" stroke-miterlimit="10" x1="118.895" y1="238.308" x2="173.728" y2="238.308"/>
		
			<line fill="none" stroke="#FFFFFF" stroke-width="5" stroke-linejoin="round" stroke-miterlimit="10" x1="118.895" y1="266.996" x2="173.728" y2="266.996"/>
		
			<line fill="none" stroke="#FFFFFF" stroke-width="5" stroke-linejoin="round" stroke-miterlimit="10" x1="146.312" y1="206.912" x2="146.312" y2="298.287"/>
	</g>
	<g>
		<g>
			<path fill="#FFFFFF" d="M294.437,213.933v77.375h-40.833v-77.375H294.437 M301.437,206.933h-54.833v91.375h54.833V206.933
				L301.437,206.933z"/>
		</g>
		
			<line fill="none" stroke="#FFFFFF" stroke-width="5" stroke-linejoin="round" stroke-miterlimit="10" x1="246.603" y1="238.329" x2="301.437" y2="238.329"/>
		
			<line fill="none" stroke="#FFFFFF" stroke-width="5" stroke-linejoin="round" stroke-miterlimit="10" x1="246.603" y1="267.017" x2="301.437" y2="267.017"/>
		
			<line fill="none" stroke="#FFFFFF" stroke-width="5" stroke-linejoin="round" stroke-miterlimit="10" x1="274.02" y1="206.933" x2="274.02" y2="298.308"/>
	</g>
	<g>
		<g>
			<path fill="#FFFFFF" d="M297.548,653.975v77.375h-40.833v-77.375H297.548 M304.548,646.975h-54.833v91.375h54.833V646.975
				L304.548,646.975z"/>
		</g>
		
			<line fill="none" stroke="#FFFFFF" stroke-width="5" stroke-linejoin="round" stroke-miterlimit="10" x1="249.715" y1="678.371" x2="304.548" y2="678.371"/>
		
			<line fill="none" stroke="#FFFFFF" stroke-width="5" stroke-linejoin="round" stroke-miterlimit="10" x1="249.715" y1="707.058" x2="304.548" y2="707.058"/>
		
			<line fill="none" stroke="#FFFFFF" stroke-width="5" stroke-linejoin="round" stroke-miterlimit="10" x1="277.132" y1="646.975" x2="277.132" y2="738.35"/>
	</g>
	<g>
		<g>
			<path fill="#FFFFFF" d="M384.573,653.975v77.375H343.74v-77.375H384.573 M391.573,646.975H336.74v91.375h54.833V646.975
				L391.573,646.975z"/>
		</g>
		
			<line fill="none" stroke="#FFFFFF" stroke-width="5" stroke-linejoin="round" stroke-miterlimit="10" x1="336.74" y1="678.371" x2="391.573" y2="678.371"/>
		
			<line fill="none" stroke="#FFFFFF" stroke-width="5" stroke-linejoin="round" stroke-miterlimit="10" x1="336.74" y1="707.058" x2="391.573" y2="707.058"/>
		
			<line fill="none" stroke="#FFFFFF" stroke-width="5" stroke-linejoin="round" stroke-miterlimit="10" x1="364.157" y1="646.975" x2="364.157" y2="738.35"/>
	</g>
	<g>
		<g>
			<path fill="#FFFFFF" d="M471.598,653.975v77.375h-40.833v-77.375H471.598 M478.598,646.975h-54.833v91.375h54.833V646.975
				L478.598,646.975z"/>
		</g>
		
			<line fill="none" stroke="#FFFFFF" stroke-width="5" stroke-linejoin="round" stroke-miterlimit="10" x1="423.765" y1="678.371" x2="478.598" y2="678.371"/>
		
			<line fill="none" stroke="#FFFFFF" stroke-width="5" stroke-linejoin="round" stroke-miterlimit="10" x1="423.765" y1="707.058" x2="478.598" y2="707.058"/>
		
			<line fill="none" stroke="#FFFFFF" stroke-width="5" stroke-linejoin="round" stroke-miterlimit="10" x1="451.182" y1="646.975" x2="451.182" y2="738.35"/>
	</g>
	<g>
		<g>
			<path fill="#FFFFFF" d="M419.937,213.933v77.375h-40.833v-77.375H419.937 M426.937,206.933h-54.833v91.375h54.833V206.933
				L426.937,206.933z"/>
		</g>
		
			<line fill="none" stroke="#FFFFFF" stroke-width="5" stroke-linejoin="round" stroke-miterlimit="10" x1="372.103" y1="238.329" x2="426.937" y2="238.329"/>
		
			<line fill="none" stroke="#FFFFFF" stroke-width="5" stroke-linejoin="round" stroke-miterlimit="10" x1="372.103" y1="267.017" x2="426.937" y2="267.017"/>
		
			<line fill="none" stroke="#FFFFFF" stroke-width="5" stroke-linejoin="round" stroke-miterlimit="10" x1="399.52" y1="206.933" x2="399.52" y2="298.308"/>
	</g>
	<line fill="none" stroke="#823737" stroke-width="8" stroke-miterlimit="10" x1="66.567" y1="411.996" x2="122.677" y2="411.996"/>
	<line fill="none" stroke="#823737" stroke-width="5" stroke-miterlimit="10" x1="83.77" y1="388.496" x2="83.77" y2="411.996"/>
	<line fill="none" stroke="#823737" stroke-width="5" stroke-miterlimit="10" x1="105.27" y1="388.496" x2="105.27" y2="411.996"/>
	<path fill="#212121" stroke="#823737" stroke-width="7" stroke-linejoin="round" stroke-miterlimit="10" d="M186.122,385.249
		c-15.494,0-28.055,12.561-28.055,28.055v109.21h56.11v-109.21C214.177,397.81,201.617,385.249,186.122,385.249z"/>
	<path fill="#FFFFFF" d="M157.645,413.871c-0.021-0.007-0.007-0.189,0.04-0.512c0.372-2.577,2.816-14.142,6.148-17.863
		c3.75-4.188,11.688-8.688,20.75-8.625s25.188,4.438,27.688,18s2.313,24.063,2.313,24.063h-56.516"/>
	<path fill="none" stroke="#823737" stroke-width="7" stroke-linejoin="round" stroke-miterlimit="10" d="M186.122,385.749
		c-15.494,0-28.055,12.561-28.055,28.055v109.21h56.11v-109.21C214.177,398.31,201.617,385.749,186.122,385.749z"/>
	
		<line fill="none" stroke="#823737" stroke-width="8" stroke-miterlimit="10" x1="158.067" y1="411.996" x2="214.177" y2="411.996"/>
	<line fill="none" stroke="#823737" stroke-width="5" stroke-miterlimit="10" x1="175.27" y1="388.496" x2="175.27" y2="411.996"/>
	<line fill="none" stroke="#823737" stroke-width="5" stroke-miterlimit="10" x1="196.77" y1="388.496" x2="196.77" y2="411.996"/>
	<path fill="#212121" stroke="#823737" stroke-width="7" stroke-linejoin="round" stroke-miterlimit="10" d="M277.622,385.249
		c-15.494,0-28.055,12.561-28.055,28.055v109.21h56.11v-109.21C305.677,397.81,293.117,385.249,277.622,385.249z"/>
	<path fill="#FFFFFF" d="M249.145,413.871c-0.021-0.007-0.007-0.189,0.04-0.512c0.372-2.577,2.816-14.142,6.148-17.863
		c3.75-4.188,11.688-8.688,20.75-8.625s25.188,4.438,27.688,18s2.313,24.063,2.313,24.063h-56.516"/>
	<path fill="none" stroke="#823737" stroke-width="7" stroke-linejoin="round" stroke-miterlimit="10" d="M277.622,385.749
		c-15.494,0-28.055,12.561-28.055,28.055v109.21h56.11v-109.21C305.677,398.31,293.117,385.749,277.622,385.749z"/>
	
		<line fill="none" stroke="#823737" stroke-width="8" stroke-miterlimit="10" x1="249.567" y1="411.996" x2="305.677" y2="411.996"/>
	<line fill="none" stroke="#823737" stroke-width="5" stroke-miterlimit="10" x1="266.77" y1="388.496" x2="266.77" y2="411.996"/>
	<line fill="none" stroke="#823737" stroke-width="5" stroke-miterlimit="10" x1="288.27" y1="388.496" x2="288.27" y2="411.996"/>
	<path fill="#212121" stroke="#823737" stroke-width="7" stroke-linejoin="round" stroke-miterlimit="10" d="M369.122,385.249
		c-15.494,0-28.055,12.561-28.055,28.055v109.21h56.11v-109.21C397.177,397.81,384.617,385.249,369.122,385.249z"/>
	<path fill="#FFFFFF" d="M340.645,413.871c-0.021-0.007-0.007-0.189,0.04-0.512c0.372-2.577,2.816-14.142,6.148-17.863
		c3.75-4.188,11.688-8.688,20.75-8.625s25.188,4.438,27.688,18s2.313,24.063,2.313,24.063h-56.516"/>
	<path fill="none" stroke="#823737" stroke-width="7" stroke-linejoin="round" stroke-miterlimit="10" d="M369.122,385.749
		c-15.494,0-28.055,12.561-28.055,28.055v109.21h56.11v-109.21C397.177,398.31,384.617,385.749,369.122,385.749z"/>
	
		<line fill="none" stroke="#823737" stroke-width="8" stroke-miterlimit="10" x1="341.067" y1="411.996" x2="397.177" y2="411.996"/>
	<line fill="none" stroke="#823737" stroke-width="5" stroke-miterlimit="10" x1="358.27" y1="388.496" x2="358.27" y2="411.996"/>
	<line fill="none" stroke="#823737" stroke-width="5" stroke-miterlimit="10" x1="379.77" y1="388.496" x2="379.77" y2="411.996"/>
	<path fill="#212121" stroke="#823737" stroke-width="7" stroke-linejoin="round" stroke-miterlimit="10" d="M460.622,385.249
		c-15.494,0-28.055,12.561-28.055,28.055v109.21h56.11v-109.21C488.677,397.81,476.117,385.249,460.622,385.249z"/>
	<path fill="#FFFFFF" d="M432.145,413.871c-0.021-0.007-0.007-0.189,0.04-0.512c0.372-2.577,2.816-14.142,6.148-17.863
		c3.75-4.188,11.688-8.688,20.75-8.625s25.188,4.438,27.688,18s2.313,24.063,2.313,24.063h-56.516"/>
	<path fill="none" stroke="#823737" stroke-width="7" stroke-linejoin="round" stroke-miterlimit="10" d="M460.622,385.749
		c-15.494,0-28.055,12.561-28.055,28.055v109.21h56.11v-109.21C488.677,398.31,476.117,385.749,460.622,385.749z"/>
	
		<line fill="none" stroke="#823737" stroke-width="8" stroke-miterlimit="10" x1="432.567" y1="411.996" x2="488.677" y2="411.996"/>
	<line fill="none" stroke="#823737" stroke-width="5" stroke-miterlimit="10" x1="449.77" y1="388.496" x2="449.77" y2="411.996"/>
	<line fill="none" stroke="#823737" stroke-width="5" stroke-miterlimit="10" x1="471.27" y1="388.496" x2="471.27" y2="411.996"/>
</g>
</svg>
