<?xml version="1.0" encoding="utf-8"?>
<!-- Generator: Adobe Illustrator 17.0.0, SVG Export Plug-In . SVG Version: 6.00 Build 0)  -->
<!DOCTYPE svg PUBLIC "-//W3C//DTD SVG 1.1//EN" "http://www.w3.org/Graphics/SVG/1.1/DTD/svg11.dtd">
<svg version="1.1" id="Layer_1" xmlns="http://www.w3.org/2000/svg" xmlns:xlink="http://www.w3.org/1999/xlink" x="0px" y="0px"
	 width="276px" height="548px" viewBox="0 0 276 548" enable-background="new 0 0 276 548" xml:space="preserve">
<g>
	<rect x="10.75" y="142.167" fill="#FAFAFA" width="254.5" height="405.833"/>
	<rect x="0" y="0" fill="#B71C1C" width="276" height="142.167"/>
	<polygon fill="#FF5252" points="202.875,71.083 73.125,71.083 78.5,35 198.333,35 	"/>
	<rect x="79.333" y="71.083" fill="#FAFAFA" width="118.5" height="47.083"/>
	<rect x="33.75" y="381.667" fill="#212121" width="82" height="166.333"/>
	<rect x="170.083" y="381.667" fill="#212121" width="71.667" height="138"/>
	<g>
		
			<rect x="170.083" y="427.375" fill="none" stroke="#3E2723" stroke-width="8" stroke-linejoin="round" stroke-miterlimit="10" width="35.833" height="46"/>
		
			<rect x="170.083" y="381.667" fill="none" stroke="#3E2723" stroke-width="8" stroke-linejoin="round" stroke-miterlimit="10" width="35.833" height="45.708"/>
		
			<rect x="170.083" y="473.375" fill="none" stroke="#3E2723" stroke-width="8" stroke-linejoin="round" stroke-miterlimit="10" width="35.833" height="46.292"/>
		
			<rect x="205.917" y="473.375" fill="none" stroke="#3E2723" stroke-width="8" stroke-linejoin="round" stroke-miterlimit="10" width="35.833" height="46.292"/>
		
			<rect x="205.917" y="381.667" fill="none" stroke="#3E2723" stroke-width="8" stroke-linejoin="round" stroke-miterlimit="10" width="35.833" height="45.708"/>
		
			<rect x="205.917" y="427.375" fill="none" stroke="#3E2723" stroke-width="8" stroke-linejoin="round" stroke-miterlimit="10" width="35.833" height="46"/>
	</g>
	<rect x="170.083" y="171.833" fill="#212121" width="71.667" height="138"/>
	<g>
		
			<rect x="170.083" y="217.542" fill="none" stroke="#3E2723" stroke-width="8" stroke-linejoin="round" stroke-miterlimit="10" width="35.833" height="46"/>
		
			<rect x="170.083" y="171.833" fill="none" stroke="#3E2723" stroke-width="8" stroke-linejoin="round" stroke-miterlimit="10" width="35.833" height="45.708"/>
		
			<rect x="170.083" y="263.542" fill="none" stroke="#3E2723" stroke-width="8" stroke-linejoin="round" stroke-miterlimit="10" width="35.833" height="46.292"/>
		
			<rect x="205.917" y="263.542" fill="none" stroke="#3E2723" stroke-width="8" stroke-linejoin="round" stroke-miterlimit="10" width="35.833" height="46.292"/>
		
			<rect x="205.917" y="171.833" fill="none" stroke="#3E2723" stroke-width="8" stroke-linejoin="round" stroke-miterlimit="10" width="35.833" height="45.708"/>
		
			<rect x="205.917" y="217.542" fill="none" stroke="#3E2723" stroke-width="8" stroke-linejoin="round" stroke-miterlimit="10" width="35.833" height="46"/>
	</g>
	<rect x="38.917" y="171.833" fill="#212121" width="71.667" height="138"/>
	<g>
		
			<rect x="38.917" y="217.542" fill="none" stroke="#3E2723" stroke-width="8" stroke-linejoin="round" stroke-miterlimit="10" width="35.833" height="46"/>
		
			<rect x="38.917" y="171.833" fill="none" stroke="#3E2723" stroke-width="8" stroke-linejoin="round" stroke-miterlimit="10" width="35.833" height="45.708"/>
		
			<rect x="38.917" y="263.542" fill="none" stroke="#3E2723" stroke-width="8" stroke-linejoin="round" stroke-miterlimit="10" width="35.833" height="46.292"/>
		
			<rect x="74.75" y="263.542" fill="none" stroke="#3E2723" stroke-width="8" stroke-linejoin="round" stroke-miterlimit="10" width="35.833" height="46.292"/>
		
			<rect x="74.75" y="171.833" fill="none" stroke="#3E2723" stroke-width="8" stroke-linejoin="round" stroke-miterlimit="10" width="35.833" height="45.708"/>
		
			<rect x="74.75" y="217.542" fill="none" stroke="#3E2723" stroke-width="8" stroke-linejoin="round" stroke-miterlimit="10" width="35.833" height="46"/>
	</g>
	<g>
		<rect x="91.042" y="75.083" fill="#212121" width="39.083" height="39.083"/>
		<path fill="#3E2723" d="M126.125,79.083v31.083H95.042V79.083H126.125 M134.125,71.083H87.042v47.083h47.083V71.083
			L134.125,71.083z"/>
	</g>
	<g>
		<rect x="147.459" y="75.083" fill="#212121" width="39.083" height="39.083"/>
		<path fill="#3E2723" d="M182.542,79.083v31.083h-31.083V79.083H182.542 M190.542,71.083h-47.083v47.083h47.083V71.083
			L190.542,71.083z"/>
	</g>
</g>
</svg>
