<?xml version="1.0" encoding="utf-8"?>
<!-- Generator: Adobe Illustrator 17.0.0, SVG Export Plug-In . SVG Version: 6.00 Build 0)  -->
<!DOCTYPE svg PUBLIC "-//W3C//DTD SVG 1.1 Basic//EN" "http://www.w3.org/Graphics/SVG/1.1/DTD/svg11-basic.dtd">
<svg version="1.1" baseProfile="basic" id="Layer_1"
	 xmlns="http://www.w3.org/2000/svg" xmlns:xlink="http://www.w3.org/1999/xlink" x="0px" y="0px" width="210.017px"
	 height="416.274px" viewBox="0 0 210.017 416.274" xml:space="preserve">
<rect x="-370.766" y="-383.726" fill="#00E5FF" width="3000" height="800"/>
<g>
	<rect x="8.18" y="108.179" fill="#FAFAFA" width="193.657" height="308.812"/>
	<rect x="0" y="0" fill="#663E3A" width="210.017" height="108.179"/>
	<polygon fill="#8D6E63" points="154.374,54.09 55.643,54.09 59.733,26.633 150.918,26.633 	"/>
	<rect x="60.367" y="54.09" fill="#FAFAFA" width="90.171" height="35.827"/>
	<rect x="25.681" y="290.423" fill="#212121" width="62.396" height="126.569"/>
	<rect x="129.422" y="290.423" fill="#212121" width="54.534" height="105.009"/>
	<g>
		
			<rect x="129.422" y="325.204" fill="none" stroke="#3E2723" stroke-width="8" stroke-linejoin="round" stroke-miterlimit="10" width="27.267" height="35.003"/>
		
			<rect x="129.422" y="290.423" fill="none" stroke="#3E2723" stroke-width="8" stroke-linejoin="round" stroke-miterlimit="10" width="27.267" height="34.781"/>
		
			<rect x="129.422" y="360.207" fill="none" stroke="#3E2723" stroke-width="8" stroke-linejoin="round" stroke-miterlimit="10" width="27.267" height="35.225"/>
		
			<rect x="156.689" y="360.207" fill="none" stroke="#3E2723" stroke-width="8" stroke-linejoin="round" stroke-miterlimit="10" width="27.267" height="35.225"/>
		
			<rect x="156.689" y="290.423" fill="none" stroke="#3E2723" stroke-width="8" stroke-linejoin="round" stroke-miterlimit="10" width="27.267" height="34.781"/>
		
			<rect x="156.689" y="325.204" fill="none" stroke="#3E2723" stroke-width="8" stroke-linejoin="round" stroke-miterlimit="10" width="27.267" height="35.003"/>
	</g>
	<rect x="129.422" y="130.754" fill="#212121" width="54.534" height="105.009"/>
	<g>
		
			<rect x="129.422" y="165.535" fill="none" stroke="#3E2723" stroke-width="8" stroke-linejoin="round" stroke-miterlimit="10" width="27.267" height="35.003"/>
		
			<rect x="129.422" y="130.754" fill="none" stroke="#3E2723" stroke-width="8" stroke-linejoin="round" stroke-miterlimit="10" width="27.267" height="34.781"/>
		
			<rect x="129.422" y="200.538" fill="none" stroke="#3E2723" stroke-width="8" stroke-linejoin="round" stroke-miterlimit="10" width="27.267" height="35.225"/>
		
			<rect x="156.689" y="200.538" fill="none" stroke="#3E2723" stroke-width="8" stroke-linejoin="round" stroke-miterlimit="10" width="27.267" height="35.225"/>
		
			<rect x="156.689" y="130.754" fill="none" stroke="#3E2723" stroke-width="8" stroke-linejoin="round" stroke-miterlimit="10" width="27.267" height="34.781"/>
		
			<rect x="156.689" y="165.535" fill="none" stroke="#3E2723" stroke-width="8" stroke-linejoin="round" stroke-miterlimit="10" width="27.267" height="35.003"/>
	</g>
	<rect x="29.613" y="130.754" fill="#212121" width="54.534" height="105.009"/>
	<g>
		
			<rect x="29.613" y="165.535" fill="none" stroke="#3E2723" stroke-width="8" stroke-linejoin="round" stroke-miterlimit="10" width="27.267" height="35.003"/>
		
			<rect x="29.613" y="130.754" fill="none" stroke="#3E2723" stroke-width="8" stroke-linejoin="round" stroke-miterlimit="10" width="27.267" height="34.781"/>
		
			<rect x="29.613" y="200.538" fill="none" stroke="#3E2723" stroke-width="8" stroke-linejoin="round" stroke-miterlimit="10" width="27.267" height="35.225"/>
		
			<rect x="56.88" y="200.538" fill="none" stroke="#3E2723" stroke-width="8" stroke-linejoin="round" stroke-miterlimit="10" width="27.267" height="35.225"/>
		
			<rect x="56.88" y="130.754" fill="none" stroke="#3E2723" stroke-width="8" stroke-linejoin="round" stroke-miterlimit="10" width="27.267" height="34.781"/>
		
			<rect x="56.88" y="165.535" fill="none" stroke="#3E2723" stroke-width="8" stroke-linejoin="round" stroke-miterlimit="10" width="27.267" height="35.003"/>
	</g>
	<g>
		<rect x="70.233" y="58.089" fill="#212121" width="27.828" height="27.827"/>
		<path fill="#3E2723" d="M94.06,62.09v19.827H74.233V62.09H94.06 M102.06,54.09H66.233v35.827h35.827V54.09L102.06,54.09z"/>
	</g>
	<g>
		<rect x="113.162" y="58.089" fill="#212121" width="27.827" height="27.827"/>
		<path fill="#3E2723" d="M136.989,62.09v19.827h-19.827V62.09H136.989 M144.989,54.09h-35.827v35.827h35.827V54.09L144.989,54.09z"
			/>
	</g>
</g>
</svg>
