<?xml version="1.0" encoding="utf-8"?>
<!-- Generator: Adobe Illustrator 17.0.0, SVG Export Plug-In . SVG Version: 6.00 Build 0)  -->
<!DOCTYPE svg PUBLIC "-//W3C//DTD SVG 1.1//EN" "http://www.w3.org/Graphics/SVG/1.1/DTD/svg11.dtd">
<svg version="1.1" id="Layer_1" xmlns="http://www.w3.org/2000/svg" xmlns:xlink="http://www.w3.org/1999/xlink" x="0px" y="0px"
	 width="359px" height="601.5px" viewBox="0 0 359 601.5" enable-background="new 0 0 359 601.5" xml:space="preserve">
<g>
	<rect x="6.752" y="160.134" fill="#EFEBE9" width="345.608" height="441.366"/>
	
		<polygon fill="#006064" stroke="#3E2723" stroke-width="10" stroke-linecap="round" stroke-linejoin="round" stroke-miterlimit="10" points="
		179.61,7.417 6.752,160.134 352.468,160.134 	"/>
	
		<polygon fill="#006064" stroke="#3E2723" stroke-width="10" stroke-linecap="round" stroke-linejoin="round" stroke-miterlimit="10" points="
		179.557,160.134 265.986,83.775 93.128,83.775 	"/>
	
		<rect x="61.786" y="235.254" fill="#212121" stroke="#3E2723" stroke-width="7" stroke-linecap="round" stroke-linejoin="round" stroke-miterlimit="10" width="65.214" height="141.986"/>
	
		<rect x="233.378" y="235.254" fill="#212121" stroke="#3E2723" stroke-width="7" stroke-linecap="round" stroke-linejoin="round" stroke-miterlimit="10" width="65.214" height="141.986"/>
	
		<line fill="none" stroke="#3E2723" stroke-width="7" stroke-linecap="round" stroke-linejoin="round" stroke-miterlimit="10" x1="11.705" y1="166.738" x2="347.408" y2="166.738"/>
	
		<line fill="none" stroke="#3E2723" stroke-width="10" stroke-linecap="round" stroke-linejoin="round" stroke-miterlimit="10" x1="61.786" y1="166.738" x2="61.786" y2="433.374"/>
	
		<line fill="none" stroke="#3E2723" stroke-width="10" stroke-linecap="round" stroke-linejoin="round" stroke-miterlimit="10" x1="233.378" y1="166.738" x2="233.378" y2="433.374"/>
	
		<line fill="none" stroke="#3E2723" stroke-width="10" stroke-linecap="round" stroke-linejoin="round" stroke-miterlimit="10" x1="127" y1="166.738" x2="127" y2="433.374"/>
	
		<line fill="none" stroke="#3E2723" stroke-width="10" stroke-linecap="round" stroke-linejoin="round" stroke-miterlimit="10" x1="298.593" y1="166.738" x2="298.593" y2="433.374"/>
	
		<line fill="none" stroke="#3E2723" stroke-width="7" stroke-linecap="round" stroke-linejoin="round" stroke-miterlimit="10" x1="61.786" y1="306.247" x2="127" y2="306.247"/>
	
		<line fill="none" stroke="#3E2723" stroke-width="7" stroke-linecap="round" stroke-linejoin="round" stroke-miterlimit="10" x1="94.393" y1="235.254" x2="94.393" y2="377.24"/>
	
		<line fill="none" stroke="#3E2723" stroke-width="7" stroke-linecap="round" stroke-linejoin="round" stroke-miterlimit="10" x1="265.986" y1="235.254" x2="265.986" y2="377.24"/>
	
		<line fill="none" stroke="#3E2723" stroke-width="7" stroke-linecap="round" stroke-linejoin="round" stroke-miterlimit="10" x1="233.378" y1="306.247" x2="298.593" y2="306.247"/>
	
		<line fill="none" stroke="#3E2723" stroke-width="10" stroke-linecap="round" stroke-linejoin="round" stroke-miterlimit="10" x1="6.752" y1="433.374" x2="352.361" y2="433.374"/>
	
		<line fill="none" stroke="#3E2723" stroke-width="10" stroke-linecap="round" stroke-linejoin="round" stroke-miterlimit="10" x1="61.786" y1="377.24" x2="127" y2="433.374"/>
	
		<line fill="none" stroke="#3E2723" stroke-width="10" stroke-linecap="round" stroke-linejoin="round" stroke-miterlimit="10" x1="233.378" y1="377.24" x2="298.593" y2="433.374"/>
	
		<line fill="none" stroke="#3E2723" stroke-width="10" stroke-linecap="round" stroke-linejoin="round" stroke-miterlimit="10" x1="61.786" y1="186.55" x2="127" y2="186.55"/>
	
		<line fill="none" stroke="#3E2723" stroke-width="10" stroke-linecap="round" stroke-linejoin="round" stroke-miterlimit="10" x1="233.378" y1="186.55" x2="298.593" y2="186.55"/>
	
		<line fill="none" stroke="#3E2723" stroke-width="10" stroke-linecap="round" stroke-linejoin="round" stroke-miterlimit="10" x1="27.94" y1="166.738" x2="27.94" y2="433.374"/>
	
		<line fill="none" stroke="#3E2723" stroke-width="10" stroke-linecap="round" stroke-linejoin="round" stroke-miterlimit="10" x1="325.5" y1="160.134" x2="325.5" y2="433.374"/>
	<rect x="51.88" y="459.79" fill="#212121" width="66.04" height="141.71"/>
	<path fill="#D7CCC8" d="M238.993,542.339c0,5.471-4.435,9.906-9.906,9.906h-24.49c-5.471,0-9.906-4.435-9.906-9.906v-8.805
		c0-5.471,4.435-9.906,9.906-9.906h24.49c5.471,0,9.906,4.435,9.906,9.906V542.339z"/>
	<path fill="#D7CCC8" d="M295.126,542.339c0,5.471-4.435,9.906-9.906,9.906h-24.49c-5.471,0-9.906-4.435-9.906-9.906v-8.805
		c0-5.471,4.435-9.906,9.906-9.906h24.49c5.471,0,9.906,4.435,9.906,9.906V542.339z"/>
	<path fill="#D7CCC8" d="M265.959,577.285c0,5.471-4.435,9.906-9.906,9.906h-24.49c-5.471,0-9.906-4.435-9.906-9.906v-8.805
		c0-5.471,4.435-9.906,9.906-9.906h24.49c5.471,0,9.906,4.435,9.906,9.906V577.285z"/>
</g>
</svg>
