<?xml version="1.0" encoding="utf-8"?>
<!-- Generator: Adobe Illustrator 17.0.0, SVG Export Plug-In . SVG Version: 6.00 Build 0)  -->
<!DOCTYPE svg PUBLIC "-//W3C//DTD SVG 1.1//EN" "http://www.w3.org/Graphics/SVG/1.1/DTD/svg11.dtd">
<svg version="1.1" id="Layer_1" xmlns="http://www.w3.org/2000/svg" xmlns:xlink="http://www.w3.org/1999/xlink" x="0px" y="0px"
	 width="485.486px" height="800px" viewBox="0 0 485.486 800" enable-background="new 0 0 485.486 800" xml:space="preserve">
<g>
	<rect x="11.18" y="467.946" fill="#37474F" width="463.125" height="333.054"/>
	<path fill="#263238" d="M485.486,477L368.547,361.489l-61.615-95.667l-64.189,41.341l-64.189-41.341l-61.615,95.667L0,477H485.486z
		 M242.743,399.782l14.274,22.163l-14.274,14.45l-14.274-14.45L242.743,399.782z"/>
	<polygon fill="#263238" points="178.514,246.313 242.732,-2 306.95,246.313 	"/>
	<rect x="178.514" y="246.313" fill="#37474F" width="128.436" height="551.688"/>
	<rect x="217.222" y="314.75" fill="#212121" width="51.042" height="65"/>
	<rect x="11.18" y="485.667" fill="#441831" width="463.125" height="17"/>
	<rect x="11.18" y="637.973" fill="#441831" width="463.125" height="17"/>
	<rect x="46.014" y="485.667" fill="#441831" width="17" height="157.306"/>
	<rect x="135.264" y="485.667" fill="#441831" width="17" height="157.306"/>
	
		<rect x="44.858" y="610.677" transform="matrix(-0.5605 -0.8282 0.8282 -0.5605 -387.4966 1032.7031)" fill="#441831" width="70.86" height="17"/>
	
		<rect x="83.186" y="610.677" transform="matrix(0.5605 -0.8282 0.8282 0.5605 -460.6495 370.378)" fill="#441831" width="70.86" height="17"/>
	
		<rect x="188.137" y="610.677" transform="matrix(-0.5605 -0.8282 0.8282 -0.5605 -163.9127 1151.3628)" fill="#441831" width="70.86" height="17"/>
	
		<rect x="226.466" y="610.677" transform="matrix(0.5605 -0.8282 0.8282 0.5605 -397.6748 489.0377)" fill="#441831" width="70.86" height="17"/>
	
		<rect x="330.544" y="610.677" transform="matrix(-0.5605 -0.8282 0.8282 -0.5605 58.3101 1269.3002)" fill="#441831" width="70.86" height="17"/>
	
		<rect x="368.873" y="610.677" transform="matrix(0.5605 -0.8282 0.8282 0.5605 -335.0834 606.9751)" fill="#441831" width="70.86" height="17"/>
	<rect x="188.222" y="485.667" fill="#441831" width="17" height="157.306"/>
	<rect x="280.264" y="485.667" fill="#441831" width="17" height="157.306"/>
	<rect x="332.014" y="485.667" fill="#441831" width="17" height="157.306"/>
	<rect x="421.264" y="485.667" fill="#441831" width="17" height="157.306"/>
	
		<rect x="63.014" y="520.5" fill="#212121" stroke="#441831" stroke-width="14" stroke-miterlimit="10" width="72.25" height="84.25"/>
	
		<rect x="349.014" y="520.5" fill="#212121" stroke="#441831" stroke-width="14" stroke-miterlimit="10" width="72.25" height="84.25"/>
	
		<rect x="205.222" y="520.5" fill="#212121" stroke="#441831" stroke-width="14" stroke-miterlimit="10" width="75.042" height="84.25"/>
	<path fill="#263238" d="M85.803,736.721c0,5.471-4.435,9.906-9.906,9.906h-24.49c-5.471,0-9.906-4.435-9.906-9.906v-8.805
		c0-5.471,4.435-9.906,9.906-9.906h24.49c5.471,0,9.906,4.435,9.906,9.906V736.721z"/>
	<path fill="#263238" d="M141.937,736.721c0,5.471-4.435,9.906-9.906,9.906h-24.49c-5.471,0-9.906-4.435-9.906-9.906v-8.805
		c0-5.471,4.435-9.906,9.906-9.906h24.49c5.471,0,9.906,4.435,9.906,9.906V736.721z"/>
	<path fill="#263238" d="M112.77,771.667c0,5.471-4.435,9.906-9.906,9.906h-24.49c-5.471,0-9.906-4.435-9.906-9.906v-8.805
		c0-5.471,4.435-9.906,9.906-9.906h24.49c5.471,0,9.906,4.435,9.906,9.906V771.667z"/>
</g>
</svg>
