<?xml version="1.0" encoding="utf-8"?>
<!-- Generator: Adobe Illustrator 17.0.0, SVG Export Plug-In . SVG Version: 6.00 Build 0)  -->
<!DOCTYPE svg PUBLIC "-//W3C//DTD SVG 1.1 Basic//EN" "http://www.w3.org/Graphics/SVG/1.1/DTD/svg11-basic.dtd">
<svg version="1.1" baseProfile="basic" id="Layer_1"
	 xmlns="http://www.w3.org/2000/svg" xmlns:xlink="http://www.w3.org/1999/xlink" x="0px" y="0px" width="276.225px"
	 height="454.657px" viewBox="0 0 276.225 454.657" xml:space="preserve">
<rect x="-28.333" y="-345.343" fill="#00E5FF" width="3000" height="800"/>
<g>
	<rect x="6.419" y="119.524" fill="#EFEBE9" width="262.985" height="335.85"/>
	
		<polygon fill="#006064" stroke="#3E2723" stroke-width="10" stroke-linecap="round" stroke-linejoin="round" stroke-miterlimit="10" points="
		137.952,3.316 6.419,119.524 269.486,119.524 	"/>
	
		<polygon fill="#006064" stroke="#3E2723" stroke-width="10" stroke-linecap="round" stroke-linejoin="round" stroke-miterlimit="10" points="
		137.912,119.524 203.678,61.42 72.145,61.42 	"/>
	
		<rect x="48.296" y="176.685" fill="#212121" stroke="#3E2723" stroke-width="7" stroke-linecap="round" stroke-linejoin="round" stroke-miterlimit="10" width="49.624" height="108.042"/>
	
		<rect x="178.866" y="176.685" fill="#212121" stroke="#3E2723" stroke-width="7" stroke-linecap="round" stroke-linejoin="round" stroke-miterlimit="10" width="49.624" height="108.042"/>
	
		<line fill="none" stroke="#3E2723" stroke-width="7" stroke-linecap="round" stroke-linejoin="round" stroke-miterlimit="10" x1="10.188" y1="124.549" x2="265.635" y2="124.549"/>
	
		<line fill="none" stroke="#3E2723" stroke-width="10" stroke-linecap="round" stroke-linejoin="round" stroke-miterlimit="10" x1="48.296" y1="124.549" x2="48.296" y2="327.441"/>
	
		<line fill="none" stroke="#3E2723" stroke-width="10" stroke-linecap="round" stroke-linejoin="round" stroke-miterlimit="10" x1="178.866" y1="124.549" x2="178.866" y2="327.441"/>
	
		<line fill="none" stroke="#3E2723" stroke-width="10" stroke-linecap="round" stroke-linejoin="round" stroke-miterlimit="10" x1="97.919" y1="124.549" x2="97.919" y2="327.441"/>
	
		<line fill="none" stroke="#3E2723" stroke-width="10" stroke-linecap="round" stroke-linejoin="round" stroke-miterlimit="10" x1="228.49" y1="124.549" x2="228.49" y2="327.441"/>
	
		<line fill="none" stroke="#3E2723" stroke-width="7" stroke-linecap="round" stroke-linejoin="round" stroke-miterlimit="10" x1="48.296" y1="230.706" x2="97.919" y2="230.706"/>
	
		<line fill="none" stroke="#3E2723" stroke-width="7" stroke-linecap="round" stroke-linejoin="round" stroke-miterlimit="10" x1="73.108" y1="176.685" x2="73.108" y2="284.727"/>
	
		<line fill="none" stroke="#3E2723" stroke-width="7" stroke-linecap="round" stroke-linejoin="round" stroke-miterlimit="10" x1="203.678" y1="176.685" x2="203.678" y2="284.727"/>
	
		<line fill="none" stroke="#3E2723" stroke-width="7" stroke-linecap="round" stroke-linejoin="round" stroke-miterlimit="10" x1="178.866" y1="230.706" x2="228.49" y2="230.706"/>
	
		<line fill="none" stroke="#3E2723" stroke-width="10" stroke-linecap="round" stroke-linejoin="round" stroke-miterlimit="10" x1="6.419" y1="327.441" x2="269.404" y2="327.441"/>
	
		<line fill="none" stroke="#3E2723" stroke-width="10" stroke-linecap="round" stroke-linejoin="round" stroke-miterlimit="10" x1="48.296" y1="284.727" x2="97.919" y2="327.441"/>
	
		<line fill="none" stroke="#3E2723" stroke-width="10" stroke-linecap="round" stroke-linejoin="round" stroke-miterlimit="10" x1="178.866" y1="284.727" x2="228.49" y2="327.441"/>
	
		<line fill="none" stroke="#3E2723" stroke-width="10" stroke-linecap="round" stroke-linejoin="round" stroke-miterlimit="10" x1="48.296" y1="139.624" x2="97.919" y2="139.624"/>
	
		<line fill="none" stroke="#3E2723" stroke-width="10" stroke-linecap="round" stroke-linejoin="round" stroke-miterlimit="10" x1="178.866" y1="139.624" x2="228.49" y2="139.624"/>
	
		<line fill="none" stroke="#3E2723" stroke-width="10" stroke-linecap="round" stroke-linejoin="round" stroke-miterlimit="10" x1="22.542" y1="124.549" x2="22.542" y2="327.441"/>
	
		<line fill="none" stroke="#3E2723" stroke-width="10" stroke-linecap="round" stroke-linejoin="round" stroke-miterlimit="10" x1="248.965" y1="119.524" x2="248.965" y2="327.441"/>
	<rect x="40.758" y="347.542" fill="#212121" width="50.252" height="107.832"/>
	<path fill="#D7CCC8" d="M183.138,410.356c0,4.163-3.375,7.538-7.538,7.538h-18.635c-4.163,0-7.538-3.375-7.538-7.538v-6.7
		c0-4.163,3.375-7.538,7.538-7.538H175.6c4.163,0,7.538,3.375,7.538,7.538V410.356z"/>
	<path fill="#D7CCC8" d="M225.852,410.356c0,4.163-3.375,7.538-7.538,7.538h-18.635c-4.163,0-7.538-3.375-7.538-7.538v-6.7
		c0-4.163,3.375-7.538,7.538-7.538h18.635c4.163,0,7.538,3.375,7.538,7.538V410.356z"/>
	<path fill="#D7CCC8" d="M203.658,436.948c0,4.163-3.375,7.538-7.538,7.538h-18.635c-4.163,0-7.538-3.375-7.538-7.538v-6.7
		c0-4.163,3.375-7.538,7.538-7.538h18.635c4.163,0,7.538,3.375,7.538,7.538V436.948z"/>
</g>
</svg>
