<?xml version="1.0" encoding="utf-8"?>
<!-- Generator: Adobe Illustrator 17.0.0, SVG Export Plug-In . SVG Version: 6.00 Build 0)  -->
<!DOCTYPE svg PUBLIC "-//W3C//DTD SVG 1.1//EN" "http://www.w3.org/Graphics/SVG/1.1/DTD/svg11.dtd">
<svg version="1.1" id="Layer_1" xmlns="http://www.w3.org/2000/svg" xmlns:xlink="http://www.w3.org/1999/xlink" x="0px" y="0px"
	 width="263.253px" height="598.441px" viewBox="0 0 263.253 598.441" enable-background="new 0 0 263.253 598.441"
	 xml:space="preserve">
<g>
	<polygon fill="#ECEFF1" points="246.022,598.441 246.022,189.533 245.792,189.533 131.99,12.226 18.189,189.533 18.189,598.441 	
		"/>
	<rect x="103.73" y="97.867" fill="#212121" width="55.792" height="58.667"/>
	<rect x="17.522" y="184.367" fill="#8C1515" width="233.667" height="10"/>
	<rect x="35.356" y="152.533" fill="#8C1515" width="189.256" height="10"/>
	<rect x="71.778" y="92.24" fill="#8C1515" width="117.911" height="10"/>
	<rect x="155.522" y="94.2" fill="#8C1515" width="10" height="97.662"/>
	<rect x="126.626" y="16.743" fill="#8C1515" width="10" height="175.12"/>
	<rect x="95.944" y="94.2" fill="#8C1515" width="10" height="97.662"/>
	
		<rect x="47.186" y="148.015" transform="matrix(0.4384 -0.8988 0.8988 0.4384 -89.8424 162.2509)" fill="#8C1515" width="75.445" height="10"/>
	
		<rect x="93.114" y="70.604" transform="matrix(0.4384 -0.8988 0.8988 0.4384 -2.1517 147.7638)" fill="#8C1515" width="48.094" height="10"/>
	
		<rect x="126.919" y="170.704" transform="matrix(0.4384 -0.8988 0.8988 0.4384 -76.8685 228.3907)" fill="#8C1515" width="34.799" height="10"/>
	
		<rect x="101.564" y="170.704" transform="matrix(-0.4384 -0.8988 0.8988 -0.4384 13.1935 359.6513)" fill="#8C1515" width="34.799" height="10"/>
	
		<rect x="122.159" y="70.604" transform="matrix(-0.4384 -0.8988 0.8988 -0.4384 142.3487 240.1557)" fill="#8C1515" width="48.094" height="10"/>
	
		<rect x="25.032" y="164.174" transform="matrix(-0.3993 -0.9168 0.9168 -0.3993 -92.4434 277.7795)" fill="#8C1515" width="39.489" height="10"/>
	
		<rect x="196.157" y="164.174" transform="matrix(0.3993 -0.9168 0.9168 0.3993 -25.4121 299.561)" fill="#8C1515" width="39.489" height="10"/>
	
		<rect x="138.831" y="148.015" transform="matrix(-0.4384 -0.8988 0.8988 -0.4384 116.4215 378.7778)" fill="#8C1515" width="75.445" height="10"/>
	<rect x="100.944" y="48.74" fill="#8C1515" width="59.578" height="10"/>
	<polygon fill="#3E2723" points="263.253,197.252 138.781,10.722 138.781,10.722 131.626,0 0,197.252 10.949,204.479 
		131.595,21.614 252.304,204.479 	"/>
	
		<rect x="66.986" y="251.7" fill="#212121" stroke="#8C1515" stroke-width="9" stroke-miterlimit="10" width="128.369" height="81.333"/>
	<line fill="none" stroke="#8C1515" stroke-width="9" stroke-miterlimit="10" x1="132.106" y1="251.7" x2="132.106" y2="332.117"/>
	<line fill="none" stroke="#8C1515" stroke-width="9" stroke-miterlimit="10" x1="99.439" y1="251.7" x2="99.439" y2="332.117"/>
	<line fill="none" stroke="#8C1515" stroke-width="9" stroke-miterlimit="10" x1="165.522" y1="251.7" x2="165.522" y2="332.117"/>
	<circle fill="#388E3C" cx="72.814" cy="320.734" r="4.938"/>
	<circle fill="#388E3C" cx="76.439" cy="317.109" r="4.938"/>
	<circle fill="#388E3C" cx="77.376" cy="320.734" r="4.938"/>
	<circle fill="#388E3C" cx="76.439" cy="322.421" r="4.938"/>
	<circle fill="#1B5E20" cx="81.814" cy="322.421" r="4.938"/>
	<circle fill="#388E3C" cx="89.626" cy="320.734" r="4.938"/>
	<circle fill="#388E3C" cx="88.001" cy="323.263" r="4.938"/>
	<circle fill="#1B5E20" cx="95.439" cy="322.95" r="4.938"/>
	<circle fill="#388E3C" cx="102.501" cy="320.2" r="4.938"/>
	<circle fill="#388E3C" cx="105.876" cy="318.95" r="4.938"/>
	<circle fill="#388E3C" cx="107.439" cy="322.95" r="4.938"/>
	<circle fill="#388E3C" cx="104.939" cy="324.2" r="4.938"/>
	<circle fill="#388E3C" cx="108.689" cy="323.888" r="4.938"/>
	<circle fill="#388E3C" cx="115.751" cy="323.888" r="4.938"/>
	<circle fill="#388E3C" cx="120.689" cy="319.825" r="4.938"/>
	<circle fill="#388E3C" cx="124.751" cy="325.671" r="4.938"/>
	<circle fill="#1B5E20" cx="121.064" cy="325.138" r="4.938"/>
	<circle fill="#1B5E20" cx="102.064" cy="325.671" r="4.938"/>
	<circle fill="#388E3C" cx="130.001" cy="325.671" r="4.938"/>
	<circle fill="#1B5E20" cx="136.751" cy="322.421" r="4.938"/>
	<circle fill="#388E3C" cx="144.126" cy="321.546" r="4.938"/>
	<circle fill="#388E3C" cx="151.064" cy="323.263" r="4.938"/>
	<circle fill="#388E3C" cx="160.939" cy="325.671" r="4.938"/>
	<circle fill="#388E3C" cx="144.126" cy="325.671" r="4.938"/>
	<circle fill="#1B5E20" cx="156.001" cy="325.671" r="4.938"/>
	<circle fill="#1B5E20" cx="164.314" cy="322.046" r="4.938"/>
	<circle fill="#388E3C" cx="171.501" cy="321.296" r="4.938"/>
	<circle fill="#388E3C" cx="176.439" cy="321.546" r="4.938"/>
	<circle fill="#388E3C" cx="172.564" cy="324.763" r="4.938"/>
	<circle fill="#388E3C" cx="168.751" cy="323.888" r="4.938"/>
	<circle fill="#388E3C" cx="177.064" cy="322.046" r="4.938"/>
	<circle fill="#388E3C" cx="186.689" cy="321.546" r="4.938"/>
	<circle fill="#388E3C" cx="188.501" cy="324.763" r="4.938"/>
	<circle fill="#388E3C" cx="182.439" cy="325.671" r="4.938"/>
	<circle fill="#1B5E20" cx="187.376" cy="325.138" r="4.938"/>
	<circle fill="#388E3C" cx="193.001" cy="325.138" r="4.938"/>
	
		<line fill="#263238" stroke="#263238" stroke-width="5" stroke-linecap="round" stroke-miterlimit="10" x1="66.986" y1="328.2" x2="195.356" y2="328.2"/>
	<circle fill="#F50057" cx="79.626" cy="314.554" r="3.438"/>
	<circle fill="#F50057" cx="88.564" cy="317.484" r="3.438"/>
	<circle fill="#F50057" cx="170.376" cy="318.671" r="3.438"/>
	<circle fill="#F50057" cx="128.501" cy="319.825" r="3.438"/>
	<circle fill="#F50057" cx="136.939" cy="318.838" r="2.25"/>
	<circle fill="#F50057" cx="181.751" cy="318.671" r="2.25"/>
	<circle fill="#F50057" cx="95.439" cy="318.325" r="2.25"/>
	<circle fill="#F50057" cx="152.501" cy="320.2" r="2.25"/>
	<circle fill="#F50057" cx="160.939" cy="318.95" r="2.25"/>
	<circle fill="#F50057" cx="102.022" cy="315.796" r="1.729"/>
	<circle fill="#F50057" cx="114.835" cy="318.838" r="1.729"/>
	<circle fill="#F50057" cx="191.272" cy="318.671" r="1.729"/>
	<circle fill="#F50057" cx="123.585" cy="316.359" r="1.729"/>
	<circle fill="#F50057" cx="146.616" cy="318.471" r="1.729"/>
	<line fill="none" stroke="#263238" stroke-width="4" stroke-miterlimit="10" x1="18.189" y1="396.7" x2="246.022" y2="396.7"/>
	
		<rect x="105.704" y="361.7" fill="#A0695C" stroke="#3E2723" stroke-width="4" stroke-miterlimit="10" width="52.984" height="17.667"/>
	<path fill="#FFE082" d="M184.001,436.108c-28.293,0-51.229,18.772-51.229,41.929v120.404h102.458V478.037
		C235.231,454.88,212.295,436.108,184.001,436.108z"/>
	<path fill="#FFE082" d="M81.376,437.608c-27.342,0-49.507,17.582-49.507,39.271V589.65h99.014V476.879
		C130.883,455.19,108.718,437.608,81.376,437.608z"/>
	<rect x="146.098" y="487.803" fill="#3E2723" width="77.057" height="110.638"/>
	<circle fill="#3E2723" cx="184.626" cy="487.803" r="38.528"/>
	<path fill="#212121" d="M81.376,450.941c-22.194,0-40.186,17.992-40.186,40.186v85.48h80.372v-85.48
		C121.563,468.933,103.571,450.941,81.376,450.941z"/>
	<rect x="18.189" y="583.275" fill="#FFE082" width="127" height="15.167"/>
	<rect x="225.522" y="583.275" fill="#FFE082" width="20.5" height="15.167"/>
	<circle fill="#FFD600" cx="212.272" cy="544.275" r="5.5"/>
	<path fill="#BBDEFB" d="M41.315,491.128v15.564h80.373v-15.564c0-22.194-17.992-40.186-40.186-40.186
		S41.315,468.933,41.315,491.128z"/>
	<g>
		<path fill="#3E2723" d="M121.428,486.608h-18.885v1.667h-6.25v-1.667H66.939v1.667h-6.25v-1.667H41.575
			c-0.166,1.484-0.26,2.991-0.26,4.52v2.564h80.373v-2.564C121.688,489.599,121.594,488.092,121.428,486.608z"/>
		<path fill="#3E2723" d="M66.939,486.608v-32.934c-2.181,0.849-4.273,1.872-6.25,3.071v29.863H66.939z"/>
		<rect x="60.689" y="486.608" fill="#3E2723" width="6.25" height="1.667"/>
		<path fill="#3E2723" d="M102.543,486.608V456.89c-1.976-1.217-4.067-2.261-6.25-3.126v32.844H102.543z"/>
		<rect x="96.293" y="486.608" fill="#3E2723" width="6.25" height="1.667"/>
	</g>
</g>
</svg>
