<?xml version="1.0" encoding="utf-8"?>
<!-- Generator: Adobe Illustrator 17.0.0, SVG Export Plug-In . SVG Version: 6.00 Build 0)  -->
<!DOCTYPE svg PUBLIC "-//W3C//DTD SVG 1.1 Basic//EN" "http://www.w3.org/Graphics/SVG/1.1/DTD/svg11-basic.dtd">
<svg version="1.1" baseProfile="basic" id="Layer_1"
	 xmlns="http://www.w3.org/2000/svg" xmlns:xlink="http://www.w3.org/1999/xlink" x="0px" y="0px" width="417.147px"
	 height="598.988px" viewBox="0 0 417.147 598.988" xml:space="preserve">
<rect x="-615.803" y="-201.012" fill="#00E5FF" width="3000" height="800"/>
<g>
	<rect x="73.16" y="473.137" fill="#212121" width="62.396" height="126.569"/>
	<polygon fill="#823737" points="336.788,128.797 406.038,283.147 417.147,278.163 346.795,121.358 346.803,121.348 
		346.783,121.331 346.77,121.304 346.757,121.309 216.343,9.376 208.573,0 200.803,9.376 70.389,121.309 70.376,121.304 
		70.364,121.331 70.344,121.348 70.352,121.358 0,278.163 11.108,283.147 80.358,128.797 208.573,18.751 	"/>
	<g>
		<polygon fill="#FFE082" points="336.793,128.75 208.578,18.704 80.363,128.75 22.051,258.721 22.051,599.705 395.415,599.705 
			395.415,259.41 		"/>
	</g>
	<rect x="77.345" y="128.117" fill="#823737" width="262.332" height="7.229"/>
	<path fill="#212121" stroke="#823737" stroke-width="7" stroke-linejoin="round" stroke-miterlimit="10" d="M72.001,291.721
		c-11.79,0-21.348,9.558-21.348,21.348v83.101h42.696v-83.101C93.349,301.279,83.791,291.721,72.001,291.721z"/>
	<path fill="#FFFFFF" d="M50.332,313.5c-0.016-0.005-0.005-0.144,0.03-0.39c0.283-1.961,2.143-10.761,4.678-13.592
		c2.853-3.186,8.893-6.611,15.789-6.563c6.896,0.048,19.166,3.377,21.068,13.697c1.902,10.32,1.76,18.31,1.76,18.31H50.653"/>
	<rect x="18.943" y="248.345" fill="#823737" width="377.993" height="7.229"/>
	<rect x="18.943" y="436.295" fill="#823737" width="377.993" height="7.229"/>
	
		<rect x="87.935" y="153.418" fill="#212121" stroke="#823737" stroke-width="7" stroke-linejoin="round" stroke-miterlimit="10" width="46.988" height="74.762"/>
	
		<rect x="187.385" y="488.26" fill="#212121" stroke="#823737" stroke-width="7" stroke-linejoin="round" stroke-miterlimit="10" width="46.988" height="74.762"/>
	
		<rect x="253.605" y="488.26" fill="#212121" stroke="#823737" stroke-width="7" stroke-linejoin="round" stroke-miterlimit="10" width="46.988" height="74.762"/>
	
		<rect x="319.825" y="488.26" fill="#212121" stroke="#823737" stroke-width="7" stroke-linejoin="round" stroke-miterlimit="10" width="46.988" height="74.762"/>
	
		<rect x="185.239" y="153.418" fill="#212121" stroke="#823737" stroke-width="7" stroke-linejoin="round" stroke-miterlimit="10" width="46.988" height="74.762"/>
	
		<rect x="185.576" y="53.356" fill="#212121" stroke="#823737" stroke-width="7" stroke-linejoin="round" stroke-miterlimit="10" width="42.445" height="56.88"/>
	
		<rect x="280.514" y="153.418" fill="#212121" stroke="#823737" stroke-width="7" stroke-linejoin="round" stroke-miterlimit="10" width="46.988" height="74.762"/>
	<path fill="none" stroke="#823737" stroke-width="7" stroke-linejoin="round" stroke-miterlimit="10" d="M72.001,292.101
		c-11.79,0-21.348,9.558-21.348,21.348v83.101h42.696v-83.101C93.349,301.659,83.791,292.101,72.001,292.101z"/>
	<rect x="58.322" y="473.137" fill="#212121" width="92.073" height="126.569"/>
	<path fill="#FFFFFF" d="M218.6,63.019v37.49h-23.325v-37.49H218.6 M225.6,56.019h-37.325v51.49H225.6V56.019L225.6,56.019z"/>
	
		<line fill="none" stroke="#FFFFFF" stroke-width="7" stroke-linejoin="round" stroke-miterlimit="10" x1="188.275" y1="81.764" x2="225.6" y2="81.764"/>
	<g>
		<path fill="#FFFFFF" d="M125.196,163.018v55.53H97.471v-55.53H125.196 M132.196,156.018H90.471v69.53h41.724V156.018
			L132.196,156.018z"/>
		
			<line fill="none" stroke="#FFFFFF" stroke-width="5" stroke-linejoin="round" stroke-miterlimit="10" x1="90.471" y1="179.908" x2="132.196" y2="179.908"/>
		
			<line fill="none" stroke="#FFFFFF" stroke-width="5" stroke-linejoin="round" stroke-miterlimit="10" x1="90.471" y1="201.738" x2="132.196" y2="201.738"/>
		
			<line fill="none" stroke="#FFFFFF" stroke-width="5" stroke-linejoin="round" stroke-miterlimit="10" x1="111.333" y1="156.018" x2="111.333" y2="225.548"/>
	</g>
	<g>
		<path fill="#FFFFFF" d="M222.373,163.034v55.53h-27.724v-55.53H222.373 M229.373,156.034h-41.724v69.53h41.724V156.034
			L229.373,156.034z"/>
		
			<line fill="none" stroke="#FFFFFF" stroke-width="5" stroke-linejoin="round" stroke-miterlimit="10" x1="187.649" y1="179.924" x2="229.373" y2="179.924"/>
		
			<line fill="none" stroke="#FFFFFF" stroke-width="5" stroke-linejoin="round" stroke-miterlimit="10" x1="187.649" y1="201.753" x2="229.373" y2="201.753"/>
		
			<line fill="none" stroke="#FFFFFF" stroke-width="5" stroke-linejoin="round" stroke-miterlimit="10" x1="208.511" y1="156.034" x2="208.511" y2="225.564"/>
	</g>
	<g>
		<path fill="#FFFFFF" d="M224.741,497.876v55.53h-27.724v-55.53H224.741 M231.741,490.876h-41.724v69.53h41.724V490.876
			L231.741,490.876z"/>
		
			<line fill="none" stroke="#FFFFFF" stroke-width="5" stroke-linejoin="round" stroke-miterlimit="10" x1="190.016" y1="514.766" x2="231.741" y2="514.766"/>
		
			<line fill="none" stroke="#FFFFFF" stroke-width="5" stroke-linejoin="round" stroke-miterlimit="10" x1="190.016" y1="536.596" x2="231.741" y2="536.596"/>
		
			<line fill="none" stroke="#FFFFFF" stroke-width="5" stroke-linejoin="round" stroke-miterlimit="10" x1="210.878" y1="490.876" x2="210.878" y2="560.406"/>
	</g>
	<g>
		<path fill="#FFFFFF" d="M290.961,497.876v55.53h-27.724v-55.53H290.961 M297.961,490.876h-41.724v69.53h41.724V490.876
			L297.961,490.876z"/>
		
			<line fill="none" stroke="#FFFFFF" stroke-width="5" stroke-linejoin="round" stroke-miterlimit="10" x1="256.236" y1="514.766" x2="297.961" y2="514.766"/>
		
			<line fill="none" stroke="#FFFFFF" stroke-width="5" stroke-linejoin="round" stroke-miterlimit="10" x1="256.236" y1="536.596" x2="297.961" y2="536.596"/>
		
			<line fill="none" stroke="#FFFFFF" stroke-width="5" stroke-linejoin="round" stroke-miterlimit="10" x1="277.099" y1="490.876" x2="277.099" y2="560.406"/>
	</g>
	<g>
		<path fill="#FFFFFF" d="M357.181,497.876v55.53h-27.724v-55.53H357.181 M364.181,490.876h-41.724v69.53h41.724V490.876
			L364.181,490.876z"/>
		
			<line fill="none" stroke="#FFFFFF" stroke-width="5" stroke-linejoin="round" stroke-miterlimit="10" x1="322.457" y1="514.766" x2="364.181" y2="514.766"/>
		
			<line fill="none" stroke="#FFFFFF" stroke-width="5" stroke-linejoin="round" stroke-miterlimit="10" x1="322.457" y1="536.596" x2="364.181" y2="536.596"/>
		
			<line fill="none" stroke="#FFFFFF" stroke-width="5" stroke-linejoin="round" stroke-miterlimit="10" x1="343.319" y1="490.876" x2="343.319" y2="560.406"/>
	</g>
	<g>
		<path fill="#FFFFFF" d="M317.87,163.034v55.53h-27.724v-55.53H317.87 M324.87,156.034h-41.724v69.53h41.724V156.034
			L324.87,156.034z"/>
		
			<line fill="none" stroke="#FFFFFF" stroke-width="5" stroke-linejoin="round" stroke-miterlimit="10" x1="283.146" y1="179.924" x2="324.87" y2="179.924"/>
		
			<line fill="none" stroke="#FFFFFF" stroke-width="5" stroke-linejoin="round" stroke-miterlimit="10" x1="283.146" y1="201.753" x2="324.87" y2="201.753"/>
		
			<line fill="none" stroke="#FFFFFF" stroke-width="5" stroke-linejoin="round" stroke-miterlimit="10" x1="304.008" y1="156.034" x2="304.008" y2="225.564"/>
	</g>
	<line fill="none" stroke="#823737" stroke-width="8" stroke-miterlimit="10" x1="50.653" y1="312.073" x2="93.349" y2="312.073"/>
	<line fill="none" stroke="#823737" stroke-width="5" stroke-miterlimit="10" x1="63.743" y1="294.191" x2="63.743" y2="312.073"/>
	<line fill="none" stroke="#823737" stroke-width="5" stroke-miterlimit="10" x1="80.103" y1="294.191" x2="80.103" y2="312.073"/>
	<path fill="#212121" stroke="#823737" stroke-width="7" stroke-linejoin="round" stroke-miterlimit="10" d="M141.626,291.721
		c-11.79,0-21.348,9.558-21.348,21.348v83.101h42.696v-83.101C162.975,301.279,153.417,291.721,141.626,291.721z"/>
	<path fill="#FFFFFF" d="M119.957,313.5c-0.016-0.005-0.005-0.144,0.03-0.39c0.283-1.961,2.143-10.761,4.678-13.592
		c2.854-3.186,8.893-6.611,15.789-6.563c6.896,0.048,19.166,3.377,21.068,13.697s1.76,18.31,1.76,18.31h-43.005"/>
	<path fill="none" stroke="#823737" stroke-width="7" stroke-linejoin="round" stroke-miterlimit="10" d="M141.626,292.101
		c-11.79,0-21.348,9.558-21.348,21.348v83.101h42.696v-83.101C162.975,301.659,153.417,292.101,141.626,292.101z"/>
	
		<line fill="none" stroke="#823737" stroke-width="8" stroke-miterlimit="10" x1="120.278" y1="312.073" x2="162.975" y2="312.073"/>
	
		<line fill="none" stroke="#823737" stroke-width="5" stroke-miterlimit="10" x1="133.369" y1="294.191" x2="133.369" y2="312.073"/>
	
		<line fill="none" stroke="#823737" stroke-width="5" stroke-miterlimit="10" x1="149.729" y1="294.191" x2="149.729" y2="312.073"/>
	<path fill="#212121" stroke="#823737" stroke-width="7" stroke-linejoin="round" stroke-miterlimit="10" d="M211.252,291.721
		c-11.79,0-21.348,9.558-21.348,21.348v83.101H232.6v-83.101C232.6,301.279,223.042,291.721,211.252,291.721z"/>
	<path fill="#FFFFFF" d="M189.583,313.5c-0.016-0.005-0.005-0.144,0.03-0.39c0.283-1.961,2.143-10.761,4.678-13.592
		c2.854-3.186,8.893-6.611,15.789-6.563c6.896,0.048,19.166,3.377,21.068,13.697c1.902,10.32,1.76,18.31,1.76,18.31h-43.005"/>
	<path fill="none" stroke="#823737" stroke-width="7" stroke-linejoin="round" stroke-miterlimit="10" d="M211.252,292.101
		c-11.79,0-21.348,9.558-21.348,21.348v83.101H232.6v-83.101C232.6,301.659,223.042,292.101,211.252,292.101z"/>
	<line fill="none" stroke="#823737" stroke-width="8" stroke-miterlimit="10" x1="189.904" y1="312.073" x2="232.6" y2="312.073"/>
	
		<line fill="none" stroke="#823737" stroke-width="5" stroke-miterlimit="10" x1="202.994" y1="294.191" x2="202.994" y2="312.073"/>
	
		<line fill="none" stroke="#823737" stroke-width="5" stroke-miterlimit="10" x1="219.354" y1="294.191" x2="219.354" y2="312.073"/>
	<path fill="#212121" stroke="#823737" stroke-width="7" stroke-linejoin="round" stroke-miterlimit="10" d="M280.877,291.721
		c-11.79,0-21.348,9.558-21.348,21.348v83.101h42.696v-83.101C302.225,301.279,292.667,291.721,280.877,291.721z"/>
	<path fill="#FFFFFF" d="M259.208,313.5c-0.016-0.005-0.005-0.144,0.03-0.39c0.283-1.961,2.143-10.761,4.678-13.592
		c2.853-3.186,8.893-6.611,15.789-6.563c6.896,0.048,19.166,3.377,21.068,13.697c1.902,10.32,1.76,18.31,1.76,18.31h-43.005"/>
	<path fill="none" stroke="#823737" stroke-width="7" stroke-linejoin="round" stroke-miterlimit="10" d="M280.877,292.101
		c-11.79,0-21.348,9.558-21.348,21.348v83.101h42.696v-83.101C302.225,301.659,292.667,292.101,280.877,292.101z"/>
	
		<line fill="none" stroke="#823737" stroke-width="8" stroke-miterlimit="10" x1="259.529" y1="312.073" x2="302.225" y2="312.073"/>
	
		<line fill="none" stroke="#823737" stroke-width="5" stroke-miterlimit="10" x1="272.619" y1="294.191" x2="272.619" y2="312.073"/>
	<line fill="none" stroke="#823737" stroke-width="5" stroke-miterlimit="10" x1="288.98" y1="294.191" x2="288.98" y2="312.073"/>
	<path fill="#212121" stroke="#823737" stroke-width="7" stroke-linejoin="round" stroke-miterlimit="10" d="M350.502,291.721
		c-11.79,0-21.348,9.558-21.348,21.348v83.101h42.696v-83.101C371.851,301.279,362.293,291.721,350.502,291.721z"/>
	<path fill="#FFFFFF" d="M328.833,313.5c-0.016-0.005-0.005-0.144,0.03-0.39c0.283-1.961,2.143-10.761,4.678-13.592
		c2.853-3.186,8.893-6.611,15.789-6.563c6.896,0.048,19.166,3.377,21.068,13.697c1.902,10.32,1.76,18.31,1.76,18.31h-43.005"/>
	<path fill="none" stroke="#823737" stroke-width="7" stroke-linejoin="round" stroke-miterlimit="10" d="M350.502,292.101
		c-11.79,0-21.348,9.558-21.348,21.348v83.101h42.696v-83.101C371.851,301.659,362.293,292.101,350.502,292.101z"/>
	
		<line fill="none" stroke="#823737" stroke-width="8" stroke-miterlimit="10" x1="329.154" y1="312.073" x2="371.851" y2="312.073"/>
	
		<line fill="none" stroke="#823737" stroke-width="5" stroke-miterlimit="10" x1="342.245" y1="294.191" x2="342.245" y2="312.073"/>
	
		<line fill="none" stroke="#823737" stroke-width="5" stroke-miterlimit="10" x1="358.605" y1="294.191" x2="358.605" y2="312.073"/>
</g>
</svg>
