<?xml version="1.0" encoding="utf-8"?>
<!-- Generator: Adobe Illustrator 17.0.0, SVG Export Plug-In . SVG Version: 6.00 Build 0)  -->
<!DOCTYPE svg PUBLIC "-//W3C//DTD SVG 1.1 Basic//EN" "http://www.w3.org/Graphics/SVG/1.1/DTD/svg11-basic.dtd">
<svg version="1.1" baseProfile="basic" id="Layer_1"
	 xmlns="http://www.w3.org/2000/svg" xmlns:xlink="http://www.w3.org/1999/xlink" x="0px" y="0px" width="200.318px"
	 height="454.657px" viewBox="0 0 200.318 454.657" xml:space="preserve">
<rect x="-1716.334" y="-345.343" fill="#00E5FF" width="3000" height="800"/>
<g>
	<polygon fill="#ECEFF1" points="187.206,455.374 187.206,144.222 187.031,144.222 100.436,9.303 13.841,144.222 13.841,455.374 	
		"/>
	<rect x="78.932" y="74.47" fill="#212121" width="42.454" height="44.641"/>
	<rect x="13.333" y="140.291" fill="#8C1515" width="177.805" height="7.609"/>
	<rect x="26.903" y="116.068" fill="#8C1515" width="144.011" height="7.609"/>
	<rect x="54.618" y="70.188" fill="#8C1515" width="89.722" height="7.609"/>
	<rect x="118.342" y="71.68" fill="#8C1515" width="7.609" height="74.314"/>
	<rect x="96.354" y="12.74" fill="#8C1515" width="7.609" height="133.255"/>
	<rect x="73.007" y="71.68" fill="#8C1515" width="7.609" height="74.314"/>
	
		<rect x="35.905" y="112.63" transform="matrix(0.4384 -0.8988 0.8988 0.4384 -68.3641 123.4621)" fill="#8C1515" width="57.408" height="7.609"/>
	
		<rect x="70.853" y="53.725" transform="matrix(0.4384 -0.8988 0.8988 0.4384 -1.6372 112.4384)" fill="#8C1515" width="36.597" height="7.609"/>
	
		<rect x="96.577" y="129.894" transform="matrix(0.4384 -0.8988 0.8988 0.4384 -58.4918 173.79)" fill="#8C1515" width="26.479" height="7.609"/>
	
		<rect x="77.283" y="129.894" transform="matrix(-0.4384 -0.8988 0.8988 -0.4384 10.0394 273.6705)" fill="#8C1515" width="26.479" height="7.609"/>
	
		<rect x="92.955" y="53.725" transform="matrix(-0.4384 -0.8988 0.8988 -0.4384 108.3178 182.7424)" fill="#8C1515" width="36.597" height="7.609"/>
	
		<rect x="19.048" y="124.925" transform="matrix(-0.3993 -0.9168 0.9168 -0.3993 -70.3433 211.3716)" fill="#8C1515" width="30.048" height="7.609"/>
	
		<rect x="149.263" y="124.925" transform="matrix(0.3993 -0.9168 0.9168 0.3993 -19.3369 227.9458)" fill="#8C1515" width="30.048" height="7.609"/>
	
		<rect x="105.641" y="112.63" transform="matrix(-0.4384 -0.8988 0.8988 -0.4384 88.5891 288.2245)" fill="#8C1515" width="57.408" height="7.609"/>
	<rect x="76.812" y="37.088" fill="#8C1515" width="45.335" height="7.609"/>
	<polygon fill="#3E2723" points="200.318,150.095 105.603,8.159 105.603,8.159 100.159,0 0,150.095 8.331,155.595 100.135,16.447 
		191.986,155.595 	"/>
	
		<rect x="50.972" y="191.527" fill="#212121" stroke="#8C1515" stroke-width="9" stroke-miterlimit="10" width="97.681" height="61.889"/>
	
		<line fill="none" stroke="#8C1515" stroke-width="9" stroke-miterlimit="10" x1="100.523" y1="191.527" x2="100.523" y2="252.719"/>
	<line fill="none" stroke="#8C1515" stroke-width="9" stroke-miterlimit="10" x1="75.666" y1="191.527" x2="75.666" y2="252.719"/>
	
		<line fill="none" stroke="#8C1515" stroke-width="9" stroke-miterlimit="10" x1="125.951" y1="191.527" x2="125.951" y2="252.719"/>
	<circle fill="#388E3C" cx="55.406" cy="244.057" r="3.757"/>
	<circle fill="#388E3C" cx="58.165" cy="241.298" r="3.757"/>
	<circle fill="#388E3C" cx="58.878" cy="244.057" r="3.757"/>
	<circle fill="#388E3C" cx="58.165" cy="245.341" r="3.757"/>
	<circle fill="#1B5E20" cx="62.255" cy="245.341" r="3.757"/>
	<circle fill="#388E3C" cx="68.2" cy="244.057" r="3.757"/>
	<circle fill="#388E3C" cx="66.963" cy="245.981" r="3.757"/>
	<circle fill="#1B5E20" cx="72.623" cy="245.743" r="3.757"/>
	<circle fill="#388E3C" cx="77.997" cy="243.651" r="3.757"/>
	<circle fill="#388E3C" cx="80.565" cy="242.7" r="3.757"/>
	<circle fill="#388E3C" cx="81.754" cy="245.743" r="3.757"/>
	<circle fill="#388E3C" cx="79.852" cy="246.694" r="3.757"/>
	<circle fill="#388E3C" cx="82.705" cy="246.457" r="3.757"/>
	<circle fill="#388E3C" cx="88.079" cy="246.457" r="3.757"/>
	<circle fill="#388E3C" cx="91.836" cy="243.365" r="3.757"/>
	<circle fill="#388E3C" cx="94.927" cy="247.814" r="3.757"/>
	<circle fill="#1B5E20" cx="92.122" cy="247.408" r="3.757"/>
	<circle fill="#1B5E20" cx="77.664" cy="247.814" r="3.757"/>
	<circle fill="#388E3C" cx="98.922" cy="247.814" r="3.757"/>
	<circle fill="#1B5E20" cx="104.059" cy="245.341" r="3.757"/>
	<circle fill="#388E3C" cx="109.671" cy="244.675" r="3.757"/>
	<circle fill="#388E3C" cx="114.95" cy="245.981" r="3.757"/>
	<circle fill="#388E3C" cx="122.464" cy="247.814" r="3.757"/>
	<circle fill="#388E3C" cx="109.671" cy="247.814" r="3.757"/>
	<circle fill="#1B5E20" cx="118.707" cy="247.814" r="3.757"/>
	<circle fill="#1B5E20" cx="125.032" cy="245.056" r="3.757"/>
	<circle fill="#388E3C" cx="130.501" cy="244.485" r="3.757"/>
	<circle fill="#388E3C" cx="134.258" cy="244.675" r="3.757"/>
	<circle fill="#388E3C" cx="131.31" cy="247.123" r="3.757"/>
	<circle fill="#388E3C" cx="128.409" cy="246.457" r="3.757"/>
	<circle fill="#388E3C" cx="134.734" cy="245.056" r="3.757"/>
	<circle fill="#388E3C" cx="142.058" cy="244.675" r="3.757"/>
	<circle fill="#388E3C" cx="143.437" cy="247.123" r="3.757"/>
	<circle fill="#388E3C" cx="138.824" cy="247.814" r="3.757"/>
	<circle fill="#1B5E20" cx="142.581" cy="247.408" r="3.757"/>
	<circle fill="#388E3C" cx="146.861" cy="247.408" r="3.757"/>
	
		<line fill="#263238" stroke="#263238" stroke-width="5" stroke-linecap="round" stroke-miterlimit="10" x1="50.972" y1="249.738" x2="148.653" y2="249.738"/>
	<circle fill="#F50057" cx="60.59" cy="239.355" r="2.616"/>
	<circle fill="#F50057" cx="67.391" cy="241.584" r="2.616"/>
	<circle fill="#F50057" cx="129.645" cy="242.487" r="2.616"/>
	<circle fill="#F50057" cx="97.781" cy="243.365" r="2.616"/>
	<circle fill="#F50057" cx="104.201" cy="242.614" r="1.712"/>
	<circle fill="#F50057" cx="138.301" cy="242.487" r="1.712"/>
	<circle fill="#F50057" cx="72.623" cy="242.224" r="1.712"/>
	<circle fill="#F50057" cx="116.043" cy="243.651" r="1.712"/>
	<circle fill="#F50057" cx="122.464" cy="242.7" r="1.712"/>
	<circle fill="#F50057" cx="77.632" cy="240.3" r="1.316"/>
	<circle fill="#F50057" cx="87.382" cy="242.614" r="1.316"/>
	<circle fill="#F50057" cx="145.545" cy="242.487" r="1.316"/>
	<circle fill="#F50057" cx="94.04" cy="240.728" r="1.316"/>
	<circle fill="#F50057" cx="111.565" cy="242.335" r="1.316"/>
	<line fill="none" stroke="#263238" stroke-width="4" stroke-miterlimit="10" x1="13.841" y1="301.862" x2="187.206" y2="301.862"/>
	
		<rect x="80.434" y="275.229" fill="#A0695C" stroke="#3E2723" stroke-width="4" stroke-miterlimit="10" width="40.318" height="13.443"/>
	<path fill="#FFE082" d="M140.013,331.849c-21.529,0-38.982,14.285-38.982,31.905v91.619h77.964v-91.619
		C178.995,346.133,161.542,331.849,140.013,331.849z"/>
	<path fill="#FFE082" d="M61.922,332.99c-20.805,0-37.671,13.379-37.671,29.883v85.811h75.343v-85.811
		C99.593,346.369,82.727,332.99,61.922,332.99z"/>
	<rect x="111.171" y="371.186" fill="#3E2723" width="58.635" height="84.188"/>
	<circle fill="#3E2723" cx="140.488" cy="371.186" r="29.318"/>
	<path fill="#212121" d="M61.922,343.136c-16.888,0-30.579,13.691-30.579,30.579v65.045h61.158v-65.045
		C92.501,356.827,78.81,343.136,61.922,343.136z"/>
	<rect x="13.841" y="443.833" fill="#FFE082" width="96.638" height="11.541"/>
	<rect x="171.607" y="443.833" fill="#FFE082" width="15.599" height="11.541"/>
	<circle fill="#FFD600" cx="161.525" cy="414.157" r="4.185"/>
	<path fill="#BBDEFB" d="M31.438,373.715v11.843h61.158v-11.843c0-16.888-13.691-30.579-30.579-30.579
		S31.438,356.827,31.438,373.715z"/>
	<g>
		<path fill="#3E2723" d="M92.399,370.276h-14.37v1.268h-4.756v-1.268H50.936v1.268H46.18v-1.268H31.636
			c-0.127,1.13-0.198,2.276-0.198,3.439v1.951h61.158v-1.951C92.596,372.552,92.525,371.406,92.399,370.276z"/>
		<path fill="#3E2723" d="M50.936,370.276v-25.061c-1.659,0.646-3.252,1.424-4.756,2.337v22.724H50.936z"/>
		<rect x="46.18" y="370.276" fill="#3E2723" width="4.756" height="1.268"/>
		<path fill="#3E2723" d="M78.029,370.276v-22.614c-1.503-0.926-3.095-1.72-4.756-2.379v24.992H78.029z"/>
		<rect x="73.273" y="370.276" fill="#3E2723" width="4.756" height="1.268"/>
	</g>
</g>
</svg>
