<?xml version="1.0" encoding="UTF-8" standalone="no"?>
<svg
   xmlns:dc="http://purl.org/dc/elements/1.1/"
   xmlns:cc="http://creativecommons.org/ns#"
   xmlns:rdf="http://www.w3.org/1999/02/22-rdf-syntax-ns#"
   xmlns:svg="http://www.w3.org/2000/svg"
   xmlns="http://www.w3.org/2000/svg"
   viewBox="0 0 269.99998 200"
   height="200"
   width="270"
   xml:space="preserve"
   id="svg2"
   version="1.1"><metadata
     id="metadata8"><rdf:RDF><cc:Work
         rdf:about=""><dc:format>image/svg+xml</dc:format><dc:type
           rdf:resource="http://purl.org/dc/dcmitype/StillImage" /><dc:title></dc:title></cc:Work></rdf:RDF></metadata><defs
     id="defs6"><linearGradient
       id="linearGradient28"
       spreadMethod="pad"
       gradientTransform="matrix(0,300,300,0,400,0)"
       gradientUnits="userSpaceOnUse"
       y2="0"
       x2="1"
       y1="0"
       x1="0"><stop
         id="stop24"
         offset="0"
         style="stop-opacity:1;stop-color:#e0f7fa" /><stop
         id="stop26"
         offset="1"
         style="stop-opacity:1;stop-color:#18ffff" /></linearGradient><clipPath
       id="clipPath38"
       clipPathUnits="userSpaceOnUse"><path
         id="path36"
         d="M 0,300 H 800 V 0 H 0 Z" /></clipPath></defs><g
     transform="matrix(1.3333333,0,0,-1.3333333,0,200)"
     id="g10"><g
       transform="translate(2.25,-140.25)"
       id="g34"
       clip-path="url(#clipPath38)"><g
         id="g56"
         transform="translate(137.33329,262.25)"><path
           d="m 0,0 c -22.814,0 -42.381,-13.891 -50.711,-33.675 -4.18,1.513 -8.689,2.342 -13.392,2.342 -14.016,0 -26.311,-7.337 -33.277,-18.374 -1.958,0.395 -3.983,0.605 -6.056,0.605 -16.817,0 -30.449,-13.633 -30.449,-30.449 0,-16.817 13.632,-30.449 30.449,-30.449 H 0 c 30.376,0 55,24.624 55,55 C 55,-24.624 30.376,0 0,0"
           style="fill:#ffffff;fill-opacity:1;fill-rule:nonzero;stroke:none"
           id="path58" /></g></g></g></svg>