<?xml version="1.0" encoding="utf-8"?>
<!-- Generator: Adobe Illustrator 17.0.0, SVG Export Plug-In . SVG Version: 6.00 Build 0)  -->
<!DOCTYPE svg PUBLIC "-//W3C//DTD SVG 1.1//EN" "http://www.w3.org/Graphics/SVG/1.1/DTD/svg11.dtd">
<svg version="1.1" id="Layer_1" xmlns="http://www.w3.org/2000/svg" xmlns:xlink="http://www.w3.org/1999/xlink" x="0px" y="0px"
	 width="227.333px" height="140.333px" viewBox="0 0 227.333 140.333" enable-background="new 0 0 227.333 140.333"
	 xml:space="preserve">
<path fill="#FFFFFF" d="M183.929,57.501c-0.261,0-0.518,0.015-0.778,0.02C178.188,24.952,150.062,0,116.107,0
	C86.765,0,61.78,18.636,52.329,44.715c-2.163-0.314-4.373-0.484-6.624-0.484C20.463,44.231,0,64.695,0,89.937
	c0,25.243,20.463,45.706,45.706,45.706h134.906v-0.15c1.095,0.092,2.199,0.15,3.317,0.15c21.578,0,39.071-17.493,39.071-39.071
	C223,74.994,205.507,57.501,183.929,57.501z"/>
</svg>
