<?xml version="1.0" encoding="utf-8"?>
<!-- Generator: Adobe Illustrator 17.0.0, SVG Export Plug-In . SVG Version: 6.00 Build 0)  -->
<!DOCTYPE svg PUBLIC "-//W3C//DTD SVG 1.1//EN" "http://www.w3.org/Graphics/SVG/1.1/DTD/svg11.dtd">
<svg version="1.1" id="Layer_1" xmlns="http://www.w3.org/2000/svg" xmlns:xlink="http://www.w3.org/1999/xlink" x="0px" y="0px"
	 width="201px" height="136.667px" viewBox="0 0 201 136.667" enable-background="new 0 0 201 136.667" xml:space="preserve">
<path fill="#FFFFFF" d="M140,19c-22.814,0-42.381,13.891-50.711,33.675c-4.18-1.514-8.689-2.342-13.392-2.342
	c-14.016,0-26.311,7.337-33.277,18.373c-1.957-0.395-3.982-0.604-6.056-0.604c-16.816,0-30.449,13.632-30.449,30.449
	S19.747,129,36.564,129H140c30.376,0,55-24.624,55-55S170.376,19,140,19z"/>
<path fill="#FFFFFF" d="M17.596,189.501c-0.261,0-0.518,0.015-0.778,0.02C11.855,156.952-16.271,132-50.226,132
	c-29.342,0-54.328,18.636-63.778,44.715c-2.163-0.314-4.373-0.484-6.624-0.484c-25.243,0-45.706,20.463-45.706,45.706
	c0,25.243,20.463,45.706,45.706,45.706H14.278v-0.15c1.095,0.092,2.199,0.15,3.317,0.15c21.578,0,39.071-17.493,39.071-39.071
	C56.667,206.994,39.174,189.501,17.596,189.501z"/>
</svg>
