<?xml version="1.0" encoding="UTF-8" standalone="no"?>
<!-- Generator: Adobe Illustrator 17.0.0, SVG Export Plug-In . SVG Version: 6.00 Build 0)  -->

<svg
   xmlns:dc="http://purl.org/dc/elements/1.1/"
   xmlns:cc="http://creativecommons.org/ns#"
   xmlns:rdf="http://www.w3.org/1999/02/22-rdf-syntax-ns#"
   xmlns:svg="http://www.w3.org/2000/svg"
   xmlns="http://www.w3.org/2000/svg"
   xmlns:sodipodi="http://sodipodi.sourceforge.net/DTD/sodipodi-0.dtd"
   xmlns:inkscape="http://www.inkscape.org/namespaces/inkscape"
   version="1.1"
   id="Layer_1"
   x="0px"
   y="0px"
   width="459"
   height="684"
   viewBox="0 0 459 684"
   enable-background="new 0 0 1000 1000"
   xml:space="preserve"
   sodipodi:docname="Torso.svg"
   inkscape:version="0.91 r13725"><metadata
     id="metadata29"><rdf:RDF><cc:Work
         rdf:about=""><dc:format>image/svg+xml</dc:format><dc:type
           rdf:resource="http://purl.org/dc/dcmitype/StillImage" /><dc:title></dc:title></cc:Work></rdf:RDF></metadata><defs
     id="defs27" /><sodipodi:namedview
     pagecolor="#ffffff"
     bordercolor="#666666"
     borderopacity="1"
     objecttolerance="10"
     gridtolerance="10"
     guidetolerance="10"
     inkscape:pageopacity="0"
     inkscape:pageshadow="2"
     inkscape:window-width="1366"
     inkscape:window-height="744"
     id="namedview25"
     showgrid="false"
     inkscape:zoom="0.236"
     inkscape:cx="-404.42091"
     inkscape:cy="729.43775"
     inkscape:window-x="0"
     inkscape:window-y="24"
     inkscape:window-maximized="1"
     inkscape:current-layer="Layer_1"
     inkscape:snap-intersection-paths="true"
     inkscape:object-paths="true"
     inkscape:snap-smooth-nodes="true"
     inkscape:snap-bbox="true" /><path
     d="m 322.69227,26.34323 c 0,0 42.91367,-29.59489 61.74996,-12.76958 6.68474,5.97137 14.47998,22.53235 8.44464,42.14719 -6.03533,19.61485 -7.84593,22.33075 -7.84593,22.33075 z"
     id="path6"
     inkscape:connector-curvature="0"
     style="fill:#6d4c41;stroke-width:1.20706761" /><path
     d="m 338.17049,24.05463 c 34.68148,10.29387 104.0094,80.05031 116.68361,94.53513 1.81061,18.10601 -10.8636,30.17668 -10.8636,30.17668 0,0 -60.70826,41.25396 -53.11098,75.44174 18.98718,85.44349 103.80783,278.00578 35.00497,385.8597 C 368.35323,700.25273 125.94386,716.98631 39.143616,582.71693 -47.656614,448.44755 35.283416,246.62825 63.764176,196.44562 92.246156,146.2642 185.68285,74.2964 220.43432,45.96049 259.66282,13.97319 338.17049,24.05463 338.17049,24.05463 Z"
     id="path8"
     inkscape:connector-curvature="0"
     style="fill:#8d6e63;stroke-width:1.20706761" /><path
     d="m 278.20337,26.34323 c 0,0 -21.71031,-24.68213 -55.5082,-15.18371 -9.67465,2.71952 -20.72174,24.94648 -14.6864,44.56132 6.03534,19.61485 7.84594,22.33075 7.84594,22.33075 z"
     id="path12"
     inkscape:connector-curvature="0"
     style="fill:#6d4c41;stroke-width:1.20706761" /><path
     d="m 372.38724,82.98126 c 0,4.00022 -3.24218,7.2424 -7.2424,7.2424 l -37.72087,0 c -4.00022,0 -7.2424,-3.24218 -7.2424,-7.2424 l 0,-0.60354 c 0,-4.00022 3.24218,-7.2424 7.2424,-7.2424 l 37.72087,0 c 4.00022,0 7.2424,3.24218 7.2424,7.2424 z"
     id="path14"
     inkscape:connector-curvature="0"
     style="fill:#212121;stroke-width:1.20706761" /><path
     d="m 401.62242,66.99485 c 0,0 -35.13049,51.63474 -35.48899,60.04438 -1.25777,29.57316 65.58481,31.04095 65.58481,31.04095 l 13.56623,-10.70548 7.66368,-13.23309 1.90475,-15.55185 c 0,0 -7.80007,-9.20148 -22.77737,-23.44006 C 417.09824,80.90993 401.62242,66.99485 401.62242,66.99485 Z"
     id="path20"
     inkscape:connector-curvature="0"
     style="fill:#bcaaa4;stroke-width:1.20706761" /><path
     d="m 454.8541,118.58976 c 0,0 -10.8636,-2.71591 -11.16537,0 -0.30177,2.7159 -2.41414,13.57951 -2.41414,13.57951 l 13.57951,0 z"
     id="path22"
     inkscape:connector-curvature="0"
     style="fill:#3e2723;stroke-width:1.20706761" /><circle
     style="opacity:1;fill:#212121;fill-opacity:1;fill-rule:evenodd;stroke:none;stroke-width:1.00199997;stroke-linejoin:round;stroke-miterlimit:4;stroke-dasharray:none;stroke-opacity:1"
     id="path4877"
     cx="352.23419"
     cy="-96.028992"
     r="11.98486"
     transform="scale(1,-1)" /></svg>