<?xml version="1.0" encoding="UTF-8" standalone="no"?>
<!-- Generator: Adobe Illustrator 17.0.0, SVG Export Plug-In . SVG Version: 6.00 Build 0)  -->

<svg
   xmlns:dc="http://purl.org/dc/elements/1.1/"
   xmlns:cc="http://creativecommons.org/ns#"
   xmlns:rdf="http://www.w3.org/1999/02/22-rdf-syntax-ns#"
   xmlns:svg="http://www.w3.org/2000/svg"
   xmlns="http://www.w3.org/2000/svg"
   xmlns:sodipodi="http://sodipodi.sourceforge.net/DTD/sodipodi-0.dtd"
   xmlns:inkscape="http://www.inkscape.org/namespaces/inkscape"
   version="1.1"
   id="Layer_1"
   x="0px"
   y="0px"
   width="488"
   height="800"
   viewBox="0 0 488 800"
   enable-background="new 0 0 1000 1000"
   xml:space="preserve"
   sodipodi:docname="Bear.svg"
   inkscape:version="0.92.1 r15371"><metadata
     id="metadata29"><rdf:RDF><cc:Work
         rdf:about=""><dc:format>image/svg+xml</dc:format><dc:type
           rdf:resource="http://purl.org/dc/dcmitype/StillImage" /><dc:title></dc:title></cc:Work></rdf:RDF></metadata><defs
     id="defs27" /><sodipodi:namedview
     pagecolor="#ffffff"
     bordercolor="#666666"
     borderopacity="1"
     objecttolerance="10"
     gridtolerance="10"
     guidetolerance="10"
     inkscape:pageopacity="0"
     inkscape:pageshadow="2"
     inkscape:window-width="640"
     inkscape:window-height="480"
     id="namedview25"
     showgrid="false"
     inkscape:zoom="0.236"
     inkscape:cx="500"
     inkscape:cy="500"
     inkscape:window-x="0"
     inkscape:window-y="0"
     inkscape:window-maximized="0"
     inkscape:current-layer="Layer_1"
     inkscape:snap-intersection-paths="true"
     inkscape:object-paths="true"
     inkscape:snap-smooth-nodes="true"
     inkscape:snap-bbox="true" /><path
     d="m 405.15551,599.96727 c 0,72.66426 -15.72568,196.75203 -82.86882,196.75203 -67.14313,0 -129.15623,-114.43123 -129.15623,-187.09549 0,-72.66426 23.30968,-141.22692 90.45281,-141.22692 67.14314,0 121.57224,58.90611 121.57224,131.57038 z"
     id="path2"
     inkscape:connector-curvature="0"
     style="fill:#6d4c41;stroke-width:1.20706761" /><path
     d="M 481.4096,487.70997 C 449.64078,525.15925 251.19524,418.102 228.67618,308.97343 215.60847,245.64342 212.57752,186.35708 256.6198,164.62986 c 44.04227,-21.72722 120.42794,1.96029 131.54624,65.66207 15.92363,91.24466 129.4242,214.76752 93.24356,257.41804 z"
     id="path4"
     inkscape:connector-curvature="0"
     style="fill:#6d4c41;stroke-width:1.20706761" /><path
     d="m 322.69227,19.461871 c 0,0 42.91367,-29.594889 61.74996,-12.7695729 6.68474,5.9713679 14.47998,22.5323479 8.44464,42.1471859 -6.03533,19.614849 -7.84593,22.330751 -7.84593,22.330751 z"
     id="path6"
     inkscape:connector-curvature="0"
     style="fill:#6d4c41;stroke-width:1.20706761" /><path
     d="m 338.17049,17.17327 c 34.68148,10.293874 104.0094,80.050317 116.68361,94.53513 1.81061,18.10601 -10.8636,30.17668 -10.8636,30.17668 0,0 -60.70826,41.25396 -53.11098,75.44174 18.98718,85.44349 103.80783,278.00578 35.00497,385.8597 C 368.35323,693.37137 125.94386,710.10495 39.143616,575.83557 -47.656614,441.56619 35.283416,239.74689 63.764176,189.56426 92.246156,139.38284 185.68285,67.415048 220.43432,39.079135 259.66282,7.0918375 338.17049,17.17327 338.17049,17.17327 Z"
     id="path8"
     inkscape:connector-curvature="0"
     style="fill:#8d6e63;stroke-width:1.20706761" /><circle
     cx="353.12494"
     cy="89.896683"
     id="circle10"
     style="fill:#212121;stroke-width:1.20706761"
     r="11.752011" /><path
     d="m 278.20337,19.461871 c 0,0 -21.71031,-24.6821237 -55.5082,-15.1837082 -9.67465,2.7195234 -20.72174,24.9464832 -14.6864,44.5613212 6.03534,19.614849 7.84594,22.330751 7.84594,22.330751 z"
     id="path12"
     inkscape:connector-curvature="0"
     style="fill:#6d4c41;stroke-width:1.20706761" /><path
     d="m 372.38724,76.0999 c 0,4.000222 -3.24218,7.242406 -7.2424,7.242406 h -37.72087 c -4.00022,0 -7.2424,-3.242184 -7.2424,-7.242406 v -0.603534 c 0,-4.000223 3.24218,-7.242406 7.2424,-7.242406 h 37.72087 c 4.00022,0 7.2424,3.242183 7.2424,7.242406 z"
     id="path14"
     inkscape:connector-curvature="0"
     style="fill:#212121;stroke-width:1.20706761" /><path
     d="M 415.55802,485.62899 C 393.56646,529.5397 180.28967,477.5694 132.55618,376.88305 c -27.701,-58.43051 -44.691684,-115.31117 -7.05169,-146.85426 37.63999,-31.54309 117.46337,-26.62791 143.35739,32.62583 37.09077,84.87376 171.74158,172.96677 146.69614,222.97437 z"
     id="path16"
     inkscape:connector-curvature="0"
     style="fill:#6d4c41;stroke-width:1.20706761" /><path
     d="m 278.20337,607.20968 c 0,72.66426 -15.72567,196.75202 -82.86881,196.75202 -67.14314,0 -129.156244,-114.43122 -129.156244,-187.09548 0,-72.66427 23.30969,-141.22692 90.452824,-141.22692 67.14314,0 121.57223,58.9061 121.57223,131.57038 z"
     id="path18"
     inkscape:connector-curvature="0"
     style="fill:#6d4c41;stroke-width:1.20706761" /><path
     d="m 401.62242,60.113495 c 0,0 -35.13049,51.634735 -35.48899,60.044375 -1.25777,29.57316 65.58481,31.04095 65.58481,31.04095 l 13.56623,-10.70548 7.66368,-13.23309 1.90475,-15.55185 c 0,0 -7.80007,-9.20148 -22.77737,-23.440051 C 417.09824,74.028572 401.62242,60.113495 401.62242,60.113495 Z"
     id="path20"
     inkscape:connector-curvature="0"
     style="fill:#bcaaa4;stroke-width:1.20706761" /><path
     d="m 454.8541,111.7084 c 0,0 -10.8636,-2.71591 -11.16537,0 -0.30177,2.7159 -2.41414,13.57951 -2.41414,13.57951 h 13.57951 z"
     id="path22"
     inkscape:connector-curvature="0"
     style="fill:#3e2723;stroke-width:1.20706761" /></svg>