<?xml version="1.0" encoding="utf-8"?>
<!-- Generator: Adobe Illustrator 17.0.0, SVG Export Plug-In . SVG Version: 6.00 Build 0)  -->
<!DOCTYPE svg PUBLIC "-//W3C//DTD SVG 1.1//EN" "http://www.w3.org/Graphics/SVG/1.1/DTD/svg11.dtd">
<svg version="1.1" id="Layer_1" xmlns="http://www.w3.org/2000/svg" xmlns:xlink="http://www.w3.org/1999/xlink" x="0px" y="0px"
	 width="1000px" height="1000px" viewBox="0 0 1000 1000" enable-background="new 0 0 1000 1000" xml:space="preserve">
<path fill="#6D4C41" d="M612.773,701.543c0,60.199-13.028,163-68.653,163s-107-94.801-107-155s19.311-117,74.936-117
	S612.773,641.344,612.773,701.543z"/>
<path fill="#6D4C41" d="M675.946,608.543c-26.319,31.025-190.722-57.667-209.378-148.075
	c-10.826-52.466-13.337-101.582,23.15-119.582s99.769,1.624,108.98,54.398C611.89,470.876,705.92,573.209,675.946,608.543z"/>
<path fill="#6D4C41" d="M544.456,220.621c0,0,35.552-24.518,51.157-10.579c5.538,4.947,11.996,18.667,6.996,34.917
	s-6.5,18.5-6.5,18.5L544.456,220.621z"/>
<path fill="#8D6E63" d="M557.279,218.725c28.732,8.528,86.167,66.318,96.667,78.318c1.5,15-9,25-9,25s-50.294,34.177-44,62.5
	c15.73,70.786,86,230.315,29,319.667c-47.662,74.714-248.487,88.577-320.397-22.659s-3.198-278.434,20.397-320.008
	c23.596-41.573,101.004-101.195,129.794-124.67C492.239,210.373,557.279,218.725,557.279,218.725z"/>
<circle fill="#212121" cx="569.668" cy="278.973" r="9.736"/>
<path fill="#6D4C41" d="M507.599,220.621c0,0-17.986-20.448-45.986-12.579c-8.015,2.253-17.167,20.667-12.167,36.917
	s6.5,18.5,6.5,18.5L507.599,220.621z"/>
<path fill="#212121" d="M585.626,267.543c0,3.314-2.686,6-6,6h-31.25c-3.314,0-6-2.686-6-6v-0.5c0-3.314,2.686-6,6-6h31.25
	c3.314,0,6,2.686,6,6V267.543z"/>
<path fill="#6D4C41" d="M621.391,606.819c-18.219,36.378-194.909-6.677-234.454-90.091c-22.949-48.407-37.025-95.53-5.842-121.662
	s97.313-22.06,118.765,27.029C530.588,492.409,642.14,565.39,621.391,606.819z"/>
<path fill="#6D4C41" d="M507.599,707.543c0,60.199-13.028,163-68.653,163s-107-94.801-107-155s19.311-117,74.936-117
	S507.599,647.344,507.599,707.543z"/>
<path fill="#BCAAA4" d="M609.846,254.299c0,0-29.104,42.777-29.401,49.744c-1.042,24.5,54.334,25.716,54.334,25.716l11.239-8.869
	l6.349-10.963l1.578-12.884c0,0-6.462-7.623-18.87-19.419C622.667,265.827,609.846,254.299,609.846,254.299z"/>
<path fill="#3E2723" d="M653.946,297.043c0,0-9-2.25-9.25,0s-2,11.25-2,11.25h11.25V297.043z"/>
</svg>
