<?xml version="1.0" encoding="utf-8"?>
<!-- Generator: Adobe Illustrator 17.0.0, SVG Export Plug-In . SVG Version: 6.00 Build 0)  -->
<!DOCTYPE svg PUBLIC "-//W3C//DTD SVG 1.1//EN" "http://www.w3.org/Graphics/SVG/1.1/DTD/svg11.dtd">
<svg version="1.1" id="Layer_1" xmlns="http://www.w3.org/2000/svg" xmlns:xlink="http://www.w3.org/1999/xlink" x="0px" y="0px"
	 width="500px" height="500px" viewBox="0 0 500 500" enable-background="new 0 0 500 500" xml:space="preserve">
<rect x="129.667" y="145" fill="#EFEBE9" width="209.333" height="267.333"/>
<rect x="234.333" y="145" fill="#D7CCC8" width="104.667" height="267.333"/>
<polygon fill="#006064" stroke="#3E2723" stroke-width="9" stroke-linecap="round" stroke-linejoin="round" stroke-miterlimit="10" points="
	234.366,52.5 129.667,145 339.065,145 "/>
<polygon fill="#006064" stroke="#3E2723" stroke-width="7" stroke-linecap="round" stroke-linejoin="round" stroke-miterlimit="10" points="
	234.333,145 286.683,98.75 181.984,98.75 "/>
<rect x="163" y="190.5" fill="#212121" stroke="#3E2723" stroke-width="7" stroke-linecap="round" stroke-linejoin="round" stroke-miterlimit="10" width="39.5" height="86"/>
<rect x="266.933" y="190.5" fill="#212121" stroke="#3E2723" stroke-width="7" stroke-linecap="round" stroke-linejoin="round" stroke-miterlimit="10" width="39.5" height="86"/>
<line fill="none" stroke="#3E2723" stroke-width="7" stroke-linecap="round" stroke-linejoin="round" stroke-miterlimit="10" x1="132.667" y1="149" x2="336" y2="149"/>
<line fill="none" stroke="#3E2723" stroke-width="7" stroke-linecap="round" stroke-linejoin="round" stroke-miterlimit="10" x1="163" y1="149" x2="163" y2="310.5"/>
<line fill="none" stroke="#3E2723" stroke-width="7" stroke-linecap="round" stroke-linejoin="round" stroke-miterlimit="10" x1="266.933" y1="149" x2="266.933" y2="310.5"/>
<line fill="none" stroke="#3E2723" stroke-width="7" stroke-linecap="round" stroke-linejoin="round" stroke-miterlimit="10" x1="202.5" y1="149" x2="202.5" y2="310.5"/>
<line fill="none" stroke="#3E2723" stroke-width="7" stroke-linecap="round" stroke-linejoin="round" stroke-miterlimit="10" x1="306.433" y1="149" x2="306.433" y2="310.5"/>
<line fill="none" stroke="#3E2723" stroke-width="7" stroke-linecap="round" stroke-linejoin="round" stroke-miterlimit="10" x1="163" y1="233.5" x2="202.5" y2="233.5"/>
<line fill="none" stroke="#3E2723" stroke-width="7" stroke-linecap="round" stroke-linejoin="round" stroke-miterlimit="10" x1="182.75" y1="190.5" x2="182.75" y2="276.5"/>
<line fill="none" stroke="#3E2723" stroke-width="7" stroke-linecap="round" stroke-linejoin="round" stroke-miterlimit="10" x1="286.683" y1="190.5" x2="286.683" y2="276.5"/>
<line fill="none" stroke="#3E2723" stroke-width="7" stroke-linecap="round" stroke-linejoin="round" stroke-miterlimit="10" x1="266.933" y1="233.5" x2="306.433" y2="233.5"/>
<line fill="none" stroke="#3E2723" stroke-width="7" stroke-linecap="round" stroke-linejoin="round" stroke-miterlimit="10" x1="129.667" y1="310.5" x2="339" y2="310.5"/>
<line fill="none" stroke="#3E2723" stroke-width="7" stroke-linecap="round" stroke-linejoin="round" stroke-miterlimit="10" x1="163" y1="276.5" x2="202.5" y2="310.5"/>
<line fill="none" stroke="#3E2723" stroke-width="7" stroke-linecap="round" stroke-linejoin="round" stroke-miterlimit="10" x1="266.933" y1="276.5" x2="306.433" y2="310.5"/>
<line fill="none" stroke="#3E2723" stroke-width="7" stroke-linecap="round" stroke-linejoin="round" stroke-miterlimit="10" x1="163" y1="161" x2="202.5" y2="161"/>
<line fill="none" stroke="#3E2723" stroke-width="7" stroke-linecap="round" stroke-linejoin="round" stroke-miterlimit="10" x1="266.933" y1="161" x2="306.433" y2="161"/>
<line fill="none" stroke="#3E2723" stroke-width="7" stroke-linecap="round" stroke-linejoin="round" stroke-miterlimit="10" x1="142.5" y1="149" x2="142.5" y2="310.5"/>
<line fill="none" stroke="#3E2723" stroke-width="7" stroke-linecap="round" stroke-linejoin="round" stroke-miterlimit="10" x1="326.5" y1="149" x2="326.5" y2="310.5"/>
<rect x="157" y="326.5" fill="#212121" width="40" height="85.833"/>
<path fill="#EFEBE9" d="M270.333,376.5c0,3.314-2.686,6-6,6H249.5c-3.314,0-6-2.686-6-6v-5.333c0-3.314,2.686-6,6-6h14.833
	c3.314,0,6,2.686,6,6V376.5z"/>
<path fill="#EFEBE9" d="M304.333,376.5c0,3.314-2.686,6-6,6H283.5c-3.314,0-6-2.686-6-6v-5.333c0-3.314,2.686-6,6-6h14.833
	c3.314,0,6,2.686,6,6V376.5z"/>
<path fill="#EFEBE9" d="M286.667,397.667c0,3.314-2.686,6-6,6h-14.833c-3.314,0-6-2.686-6-6v-5.333c0-3.314,2.686-6,6-6h14.833
	c3.314,0,6,2.686,6,6V397.667z"/>
</svg>
