<?xml version="1.0" encoding="utf-8"?>
<!-- Generator: Adobe Illustrator 17.0.0, SVG Export Plug-In . SVG Version: 6.00 Build 0)  -->
<!DOCTYPE svg PUBLIC "-//W3C//DTD SVG 1.1//EN" "http://www.w3.org/Graphics/SVG/1.1/DTD/svg11.dtd">
<svg version="1.1" xmlns="http://www.w3.org/2000/svg" xmlns:xlink="http://www.w3.org/1999/xlink" x="0px" y="0px" width="2880px"
	 height="612px" viewBox="0 0 2880 612" enable-background="new 0 0 2880 612" xml:space="preserve">
<g id="Layer_2">
	<g>
		<rect x="1340.304" y="480.859" fill="#6D4C41" width="53.243" height="131.54"/>
		<rect x="1340.304" y="481.837" fill="#3E2723" width="26.622" height="130.562"/>
		<g>
			<defs>
				<path id="SVGID_1_" d="M1523.128,355.845c0,119.253-69.934,145.281-156.203,145.281s-156.203-26.028-156.203-145.281
					s156.203-286.573,156.203-286.573S1523.128,236.592,1523.128,355.845z"/>
			</defs>
			<clipPath id="SVGID_2_">
				<use xlink:href="#SVGID_1_"  overflow="visible"/>
			</clipPath>
			<rect x="1156.25" y="21.782" clip-path="url(#SVGID_2_)" fill="#A5D6A7" width="391.241" height="496.606"/>
			<rect x="1161.151" y="-18.24" clip-path="url(#SVGID_2_)" fill="#006064" width="449.849" height="561.132"/>
		</g>
	</g>
	<g>
		<rect x="950.063" y="500.798" fill="#6D4C41" width="45.173" height="111.601"/>
		<rect x="950.063" y="501.627" fill="#3E2723" width="22.586" height="110.772"/>
		<g>
			<defs>
				<path id="SVGID_4_" d="M1105.175,394.733c0,101.177-59.334,123.26-132.526,123.26s-132.526-22.083-132.526-123.26
					s132.526-243.135,132.526-243.135S1105.175,293.556,1105.175,394.733z"/>
			</defs>
			<clipPath id="SVGID_5_">
				<use xlink:href="#SVGID_4_"  overflow="visible"/>
			</clipPath>
			<rect x="793.908" y="111.307" clip-path="url(#SVGID_5_)" fill="#A5D6A7" width="331.937" height="421.331"/>
			<rect x="798.066" y="77.351" clip-path="url(#SVGID_5_)" fill="#006064" width="381.661" height="476.077"/>
		</g>
	</g>
	<g>
		<rect x="2302.438" y="475.95" fill="#6D4C41" width="55.231" height="136.449"/>
		<rect x="2302.438" y="476.964" fill="#3E2723" width="27.615" height="135.435"/>
		<g>
			<defs>
				<path id="SVGID_6_" d="M2492.086,346.269c0,123.704-72.545,150.704-162.033,150.704c-89.488,0-162.033-27-162.033-150.704
					S2330.053,49,2330.053,49S2492.086,222.565,2492.086,346.269z"/>
			</defs>
			<clipPath id="SVGID_7_">
				<use xlink:href="#SVGID_6_"  overflow="visible"/>
			</clipPath>
			<rect x="2111.515" y="-0.262" clip-path="url(#SVGID_7_)" fill="#A5D6A7" width="405.844" height="515.142"/>
			<rect x="2116.599" y="-41.779" clip-path="url(#SVGID_7_)" fill="#006064" width="466.639" height="582.076"/>
		</g>
	</g>
	<g>
		<rect x="638.511" y="520.678" fill="#6D4C41" width="37.126" height="91.721"/>
		<rect x="638.511" y="521.36" fill="#3E2723" width="18.563" height="91.039"/>
		<g>
			<defs>
				<path id="SVGID_8_" d="M742.272,376.578c0-49.811-13.46-94.019-34.251-121.708c5.074-15.041,7.983-32.53,7.983-51.194
					c0-56.24-26.39-101.832-58.944-101.832c-32.554,0-58.944,45.592-58.944,101.832c0,18.664,2.909,36.152,7.983,51.194
					c-20.792,27.689-34.251,71.897-34.251,121.708c0,83.862,0,151.845,85.212,151.845
					C746.36,528.423,742.272,460.439,742.272,376.578z"/>
			</defs>
			<clipPath id="SVGID_9_">
				<use xlink:href="#SVGID_8_"  overflow="visible"/>
			</clipPath>
			<rect x="517.388" y="89.224" clip-path="url(#SVGID_9_)" fill="#00C853" width="290.876" height="454.984"/>
			<rect x="526.358" y="77.782" clip-path="url(#SVGID_9_)" fill="#006064" width="502.895" height="459.097"/>
		</g>
	</g>
	<g>
		<rect x="135.206" y="520.678" fill="#6D4C41" width="37.126" height="91.721"/>
		<rect x="135.206" y="521.36" fill="#3E2723" width="18.563" height="91.039"/>
		<g>
			<defs>
				<path id="SVGID_10_" d="M238.968,376.578c0-49.811-13.46-94.019-34.251-121.708c5.074-15.041,7.983-32.53,7.983-51.194
					c0-56.24-26.39-101.832-58.944-101.832c-32.554,0-58.944,45.592-58.944,101.832c0,18.664,2.909,36.152,7.983,51.194
					c-20.792,27.689-34.251,71.897-34.251,121.708c0,83.862,0,151.845,85.212,151.845
					C243.056,528.423,238.968,460.439,238.968,376.578z"/>
			</defs>
			<clipPath id="SVGID_11_">
				<use xlink:href="#SVGID_10_"  overflow="visible"/>
			</clipPath>
			<rect x="14.083" y="89.224" clip-path="url(#SVGID_11_)" fill="#00C853" width="290.876" height="454.984"/>
			<rect x="23.053" y="77.782" clip-path="url(#SVGID_11_)" fill="#006064" width="502.895" height="459.097"/>
		</g>
	</g>
	<g>
		<rect x="1246.836" y="520.678" fill="#6D4C41" width="37.126" height="91.721"/>
		<rect x="1246.836" y="521.36" fill="#3E2723" width="18.563" height="91.039"/>
		<g>
			<defs>
				<path id="SVGID_12_" d="M1350.597,376.578c0-49.811-13.46-94.019-34.251-121.708c5.073-15.041,7.983-32.53,7.983-51.194
					c0-56.24-26.39-101.832-58.944-101.832s-58.944,45.592-58.944,101.832c0,18.664,2.909,36.152,7.983,51.194
					c-20.792,27.689-34.251,71.897-34.251,121.708c0,83.862,0,151.845,85.213,151.845
					C1354.685,528.423,1350.597,460.439,1350.597,376.578z"/>
			</defs>
			<clipPath id="SVGID_13_">
				<use xlink:href="#SVGID_12_"  overflow="visible"/>
			</clipPath>
			<rect x="1134.682" y="77.782" clip-path="url(#SVGID_13_)" fill="#006064" width="502.895" height="459.097"/>
		</g>
	</g>
	<g>
		<rect x="1998.01" y="508.31" fill="#6D4C41" width="42.132" height="104.089"/>
		<rect x="1998.01" y="509.084" fill="#3E2723" width="21.066" height="103.315"/>
		<g>
			<defs>
				<path id="SVGID_14_" d="M2115.763,344.779c0-56.527-15.275-106.697-38.87-138.119c5.758-17.07,9.059-36.916,9.059-58.097
					c0-63.824-29.948-115.563-66.892-115.563c-36.943,0-66.892,51.739-66.892,115.563c0,21.181,3.301,41.027,9.059,58.097
					c-23.595,31.422-38.87,81.592-38.87,138.119c0,95.17,0,172.32,96.703,172.32
					C2120.402,517.099,2115.763,439.949,2115.763,344.779z"/>
			</defs>
			<clipPath id="SVGID_15_">
				<use xlink:href="#SVGID_14_"  overflow="visible"/>
			</clipPath>
			<rect x="1870.734" y="5.693" clip-path="url(#SVGID_15_)" fill="#006064" width="570.706" height="521.003"/>
		</g>
	</g>
	<g>
		<rect x="310.04" y="491.119" fill="#6D4C41" width="48.929" height="120.881"/>
		<g>
			<defs>
				<polygon id="SVGID_16_" points="531.233,492.017 436.475,373.684 475.747,373.684 398.046,273.308 438.345,273.308 
					334.505,131.507 230.664,273.308 270.964,273.308 193.262,373.684 232.534,373.684 137.777,492.017 				"/>
			</defs>
			<clipPath id="SVGID_17_">
				<use xlink:href="#SVGID_16_"  overflow="visible"/>
			</clipPath>
			<rect x="137.777" y="107.97" clip-path="url(#SVGID_17_)" fill="#00C853" width="414.848" height="384.047"/>
			<rect x="75.241" y="96.711" clip-path="url(#SVGID_17_)" fill="#006064" width="666.689" height="413.059"/>
		</g>
		<rect x="310.04" y="492.017" fill="#3E2723" width="24.465" height="119.983"/>
	</g>
	<g>
		<rect x="-22.431" y="479.032" fill="#6D4C41" width="55.266" height="136.538"/>
		<g>
			<defs>
				<polygon id="SVGID_18_" points="227.411,480.046 120.38,346.386 164.739,346.386 76.974,233.009 122.493,233.009 5.203,72.842 
					-112.088,233.009 -66.568,233.009 -154.334,346.386 -109.975,346.386 -217.006,480.046 				"/>
			</defs>
			<clipPath id="SVGID_19_">
				<use xlink:href="#SVGID_18_"  overflow="visible"/>
			</clipPath>
			<rect x="-287.641" y="33.539" clip-path="url(#SVGID_19_)" fill="#006064" width="753.04" height="466.56"/>
		</g>
		<rect x="2852.367" y="479.032" fill="#6D4C41" width="55.266" height="136.538"/>
		<g>
			<defs>
				<polygon id="SVGID_20_" points="3102.208,480.046 2995.178,346.386 3039.537,346.386 2951.771,233.009 2997.291,233.009 
					2880,72.842 2762.71,233.009 2808.229,233.009 2720.463,346.386 2764.822,346.386 2657.792,480.046 				"/>
			</defs>
			<clipPath id="SVGID_21_">
				<use xlink:href="#SVGID_20_"  overflow="visible"/>
			</clipPath>
			<rect x="2587.156" y="33.539" clip-path="url(#SVGID_21_)" fill="#006064" width="753.04" height="466.56"/>
		</g>
		<rect x="-22.431" y="480.046" fill="#3E2723" width="27.633" height="135.523"/>
	</g>
	<g>
		<rect x="1126.303" y="478.916" fill="#6D4C41" width="53.868" height="133.084"/>
		<g>
			<defs>
				<polygon id="SVGID_22_" points="1369.825,479.905 1265.502,349.625 1308.739,349.625 1223.193,239.117 1267.561,239.117 
					1153.237,83 1038.914,239.117 1083.282,239.117 997.736,349.625 1040.973,349.625 936.649,479.905 				"/>
			</defs>
			<clipPath id="SVGID_23_">
				<use xlink:href="#SVGID_22_"  overflow="visible"/>
			</clipPath>
			<rect x="867.801" y="44.692" clip-path="url(#SVGID_23_)" fill="#006064" width="733.992" height="454.758"/>
		</g>
		<rect x="1126.303" y="479.905" fill="#3E2723" width="26.934" height="132.095"/>
	</g>
	<g>
		<rect x="2104.303" y="478.916" fill="#6D4C41" width="53.868" height="133.084"/>
		<g>
			<defs>
				<polygon id="SVGID_24_" points="2347.825,479.905 2243.502,349.625 2286.739,349.625 2201.193,239.117 2245.561,239.117 
					2131.237,83 2016.914,239.117 2061.282,239.117 1975.736,349.625 2018.973,349.625 1914.649,479.905 				"/>
			</defs>
			<clipPath id="SVGID_25_">
				<use xlink:href="#SVGID_24_"  overflow="visible"/>
			</clipPath>
			<rect x="1845.801" y="44.692" clip-path="url(#SVGID_25_)" fill="#006064" width="733.992" height="454.758"/>
		</g>
		<rect x="2104.303" y="479.905" fill="#3E2723" width="26.934" height="132.095"/>
	</g>
	<g>
		<rect x="800.805" y="478.916" fill="#6D4C41" width="53.868" height="133.084"/>
		<g>
			<defs>
				<polygon id="SVGID_26_" points="1044.327,479.905 940.004,349.625 983.241,349.625 897.695,239.117 942.063,239.117 827.739,83 
					713.416,239.117 757.784,239.117 672.238,349.625 715.475,349.625 611.152,479.905 				"/>
			</defs>
			<clipPath id="SVGID_27_">
				<use xlink:href="#SVGID_26_"  overflow="visible"/>
			</clipPath>
			<rect x="542.303" y="44.692" clip-path="url(#SVGID_27_)" fill="#006064" width="733.992" height="454.758"/>
		</g>
		<rect x="800.805" y="479.905" fill="#3E2723" width="26.934" height="132.095"/>
	</g>
	<g>
		<rect x="2462.579" y="458.035" fill="#6D4C41" width="62.32" height="153.965"/>
		<g>
			<defs>
				<polygon id="SVGID_30_" points="2744.31,459.179 2623.618,308.459 2673.639,308.459 2574.671,180.611 2626,180.611 2493.74,0 
					2361.479,180.611 2412.808,180.611 2313.84,308.459 2363.861,308.459 2243.169,459.179 				"/>
			</defs>
			<clipPath id="SVGID_29_">
				<use xlink:href="#SVGID_30_"  overflow="visible"/>
			</clipPath>
			<rect x="2163.518" y="-44.319" clip-path="url(#SVGID_29_)" fill="#006064" width="849.155" height="526.11"/>
		</g>
		<rect x="2462.579" y="459.179" fill="#3E2723" width="31.16" height="152.821"/>
	</g>
	<g>
		<rect x="1671.38" y="439.887" fill="#3E2723" width="61.55" height="233.685"/>
		<rect x="1671.38" y="441.624" fill="#3E2723" width="30.775" height="231.948"/>
		<path fill="none" stroke="#3E2723" stroke-width="15" stroke-miterlimit="10" d="M1718.55,551.962c0,0,39.185,5.193,51.459-13.691
			c12.275-18.884,9.442-41.545,9.442-41.545"/>
		<path fill="#006064" d="M2009.692,326.748c0-44.377-25.909-82.698-63.423-100.675c8.307-14.952,13.054-32.154,13.054-50.472
			c0-50.683-36.227-92.885-84.194-102.176c-14.901-41.575-54.642-71.322-101.343-71.322c-39.951,0-74.793,21.782-93.366,54.102
			c-2.61-0.169-5.239-0.282-7.901-0.282c-56.71,0-102.683,38.998-102.683,87.103c0,0.417,0.03,0.828,0.037,1.244
			c-28.987,5.199-52.375,26.491-60.589,54.312c-4.505-0.672-9.113-1.028-13.804-1.028c-51.235,0-92.769,41.534-92.769,92.769
			c0,36.902,21.549,68.768,52.748,83.71c-12.718,16.35-20.173,36.13-20.173,57.451c0,56.188,51.68,101.737,115.43,101.737
			c46.291,0,86.196-24.027,104.593-58.694c9.962,2.259,20.346,3.458,31.019,3.458c1.852,0,3.693-0.046,5.526-0.117
			c26.651,33.416,71.48,55.354,122.296,55.354c76.97,0,140.207-50.323,147.329-114.647
			C1990.6,398.44,2009.692,364.831,2009.692,326.748z"/>
	</g>
	<g>
		<rect x="2691.54" y="498.139" fill="#3E2723" width="30.305" height="115.058"/>
		<rect x="2691.54" y="498.994" fill="#3E2723" width="15.152" height="114.203"/>
		<path fill="none" stroke="#3E2723" stroke-width="15" stroke-miterlimit="10" d="M2714.765,553.321c0,0,19.293,2.557,25.337-6.741
			c6.044-9.298,4.649-20.455,4.649-20.455"/>
		<path fill="#006064" d="M2858.113,442.434c0-21.85-12.757-40.718-31.227-49.569c4.09-7.362,6.427-15.832,6.427-24.85
			c0-24.954-17.837-45.733-41.454-50.308c-7.337-20.47-26.904-35.117-49.897-35.117c-19.67,0-36.825,10.725-45.97,26.638
			c-1.285-0.083-2.58-0.139-3.89-0.139c-27.922,0-50.557,19.201-50.557,42.887c0,0.205,0.015,0.408,0.018,0.612
			c-14.272,2.56-25.788,13.043-29.832,26.741c-2.218-0.331-4.487-0.506-6.797-0.506c-25.226,0-45.676,20.45-45.676,45.676
			c0,18.169,10.61,33.859,25.971,41.216c-6.262,8.05-9.932,17.789-9.932,28.287c0,27.665,25.445,50.091,56.833,50.091
			c22.792,0,42.44-11.83,51.498-28.899c4.905,1.112,10.018,1.703,15.273,1.703c0.912,0,1.818-0.023,2.721-0.058
			c13.122,16.453,35.194,27.254,60.214,27.254c37.897,0,69.033-24.777,72.539-56.448
			C2848.712,477.732,2858.113,461.184,2858.113,442.434z"/>
	</g>
	<rect x="-27.633" y="476.477" fill="#006064" width="2916.633" height="136.72"/>
	<g>
		<defs>
			<polygon id="SVGID_3_" points="1724.411,424.046 1617.38,290.386 1661.739,290.386 1573.974,177.009 1619.493,177.009 
				1502.203,16.842 1384.912,177.009 1430.432,177.009 1342.666,290.386 1387.025,290.386 1279.994,424.046 			"/>
		</defs>
		<clipPath id="SVGID_31_">
			<use xlink:href="#SVGID_3_"  overflow="visible"/>
		</clipPath>
		<rect x="1209.359" y="-22.461" clip-path="url(#SVGID_31_)" fill="#006064" width="753.04" height="466.56"/>
	</g>
	<rect x="1474.569" y="424.046" fill="#3E2723" width="27.633" height="135.523"/>
</g>
<g id="Layer_1">
	<g>
		<rect x="1033.631" y="506.701" fill="#6D4C41" width="42.783" height="105.698"/>
		<rect x="1033.631" y="507.487" fill="#3E2723" width="21.392" height="104.912"/>
		<g>
			<defs>
				<path id="SVGID_33_" d="M1153.204,340.642c0-57.401-15.511-108.346-39.47-140.254c5.847-17.333,9.199-37.487,9.199-58.995
					c0-64.81-30.411-117.35-67.926-117.35c-37.515,0-67.926,52.539-67.926,117.35c0,21.508,3.352,41.661,9.199,58.995
					c-23.96,31.908-39.47,82.853-39.47,140.255c0,96.641,0,174.984,98.198,174.984
					C1157.916,515.626,1153.204,437.283,1153.204,340.642z"/>
			</defs>
			<use xlink:href="#SVGID_33_"  overflow="visible" fill="#004D40"/>
			<clipPath id="SVGID_32_">
				<use xlink:href="#SVGID_33_"  overflow="visible"/>
			</clipPath>
			<rect x="894.051" y="9.5" clip-path="url(#SVGID_32_)" fill="#004D40" width="335.201" height="524.317"/>
			<rect x="904.388" y="-3.686" clip-path="url(#SVGID_32_)" fill="#004D40" width="150.636" height="529.057"/>
		</g>
	</g>
	<g>
		<rect x="221.542" y="504.637" fill="#6D4C41" width="43.458" height="107.363"/>
		<g>
			<defs>
				<polygon id="SVGID_35_" points="418,505.434 333.839,400.333 368.719,400.333 299.707,311.182 335.5,311.182 243.271,185.238 
					151.042,311.182 186.836,311.182 117.823,400.333 152.704,400.333 68.542,505.434 				"/>
			</defs>
			<clipPath id="SVGID_34_">
				<use xlink:href="#SVGID_35_"  overflow="visible"/>
			</clipPath>
			<rect x="68.542" y="164.333" clip-path="url(#SVGID_34_)" fill="#00C853" width="368.458" height="341.101"/>
			<rect x="13" y="154.333" clip-path="url(#SVGID_34_)" fill="#43A047" width="230.271" height="366.869"/>
		</g>
		<rect x="221.542" y="505.434" fill="#3E2723" width="21.729" height="106.566"/>
	</g>
	<g>
		<rect x="1188.994" y="504.637" fill="#6D4C41" width="43.458" height="107.363"/>
		<g>
			<defs>
				<polygon id="SVGID_37_" points="1385.452,505.434 1301.29,400.333 1336.171,400.333 1267.158,311.182 1302.952,311.182 
					1210.723,185.238 1118.494,311.182 1154.287,311.182 1085.275,400.333 1120.155,400.333 1035.994,505.434 				"/>
			</defs>
			<clipPath id="SVGID_36_">
				<use xlink:href="#SVGID_37_"  overflow="visible"/>
			</clipPath>
			<rect x="1035.994" y="164.333" clip-path="url(#SVGID_36_)" fill="#00C853" width="368.458" height="341.101"/>
			<rect x="980.452" y="154.333" clip-path="url(#SVGID_36_)" fill="#43A047" width="230.271" height="366.869"/>
		</g>
		<rect x="1188.994" y="505.434" fill="#3E2723" width="21.729" height="106.566"/>
	</g>
	<g>
		<rect x="2466.663" y="486.523" fill="#6D4C41" width="50.789" height="125.477"/>
		<g>
			<defs>
				<polygon id="SVGID_39_" points="2696.266,487.455 2597.905,364.623 2638.671,364.623 2558.015,260.431 2599.847,260.431 
					2492.058,113.238 2384.269,260.431 2426.101,260.431 2345.445,364.623 2386.211,364.623 2287.85,487.455 				"/>
			</defs>
			<clipPath id="SVGID_38_">
				<use xlink:href="#SVGID_39_"  overflow="visible"/>
			</clipPath>
			<rect x="2287.851" y="88.806" clip-path="url(#SVGID_38_)" fill="#00C853" width="430.621" height="398.649"/>
			<rect x="2222.937" y="77.119" clip-path="url(#SVGID_38_)" fill="#43A047" width="269.121" height="428.764"/>
		</g>
		<rect x="2466.663" y="487.455" fill="#3E2723" width="25.395" height="124.545"/>
	</g>
	<g>
		<rect x="1359.007" y="535.017" fill="#6D4C41" width="31.16" height="76.983"/>
		<g>
			<defs>
				<polygon id="SVGID_41_" points="1499.873,535.59 1439.527,460.229 1464.537,460.229 1415.053,396.306 1440.718,396.306 
					1374.587,306 1308.457,396.306 1334.121,396.306 1284.638,460.229 1309.648,460.229 1249.302,535.59 				"/>
			</defs>
			<clipPath id="SVGID_40_">
				<use xlink:href="#SVGID_41_"  overflow="visible"/>
			</clipPath>
			<rect x="1249.302" y="291.011" clip-path="url(#SVGID_40_)" fill="#C0CA33" width="264.194" height="244.579"/>
			<rect x="1209.477" y="283.841" clip-path="url(#SVGID_40_)" fill="#558B2F" width="165.111" height="263.055"/>
		</g>
		<rect x="1359.007" y="535.59" fill="#3E2723" width="15.58" height="76.41"/>
	</g>
	<g>
		<rect x="2531.007" y="535.017" fill="#6D4C41" width="31.16" height="76.983"/>
		<g>
			<defs>
				<polygon id="SVGID_43_" points="2671.873,535.59 2611.527,460.229 2636.537,460.229 2587.053,396.306 2612.718,396.306 
					2546.587,306 2480.457,396.306 2506.122,396.306 2456.637,460.229 2481.648,460.229 2421.302,535.59 				"/>
			</defs>
			<clipPath id="SVGID_42_">
				<use xlink:href="#SVGID_43_"  overflow="visible"/>
			</clipPath>
			<rect x="2421.302" y="291.011" clip-path="url(#SVGID_42_)" fill="#C0CA33" width="264.194" height="244.579"/>
			<rect x="2381.477" y="283.841" clip-path="url(#SVGID_42_)" fill="#558B2F" width="165.111" height="263.055"/>
		</g>
		<rect x="2531.007" y="535.59" fill="#3E2723" width="15.58" height="76.41"/>
	</g>
	<g>
		<rect x="503.424" y="505.035" fill="#6D4C41" width="43.458" height="107.363"/>
		<rect x="503.424" y="505.833" fill="#3E2723" width="21.729" height="106.566"/>
		<g>
			<defs>
				<path id="SVGID_45_" d="M624.881,336.36c0-58.306-15.755-110.054-40.092-142.465c5.939-17.607,9.344-38.077,9.344-59.924
					c0-65.832-30.891-119.199-68.997-119.199c-38.106,0-68.997,53.367-68.997,119.199c0,21.847,3.405,42.318,9.344,59.924
					c-24.337,32.411-40.092,84.159-40.092,142.465c0,98.164,0,177.741,99.745,177.741
					C629.667,514.101,624.881,434.524,624.881,336.36z"/>
			</defs>
			<clipPath id="SVGID_44_">
				<use xlink:href="#SVGID_45_"  overflow="visible"/>
			</clipPath>
			<rect x="361.644" clip-path="url(#SVGID_44_)" fill="#00C853" width="340.483" height="532.579"/>
			<rect x="372.144" y="-13.394" clip-path="url(#SVGID_44_)" fill="#43A047" width="153.009" height="537.394"/>
		</g>
	</g>
	<g>
		<rect x="1504.052" y="527.18" fill="#6D4C41" width="34.494" height="85.219"/>
		<rect x="1504.052" y="527.813" fill="#3E2723" width="17.247" height="84.586"/>
		<g>
			<defs>
				<path id="SVGID_47_" d="M1600.458,393.295c0-46.28-12.505-87.354-31.823-113.08c4.714-13.975,7.417-30.224,7.417-47.565
					c0-52.253-24.519-94.613-54.765-94.613s-54.766,42.36-54.766,94.613c0,17.341,2.703,33.589,7.417,47.565
					c-19.318,25.726-31.823,66.801-31.823,113.08c0,77.917,0,141.081,79.172,141.081
					C1604.256,534.376,1600.458,471.212,1600.458,393.295z"/>
			</defs>
			<clipPath id="SVGID_46_">
				<use xlink:href="#SVGID_47_"  overflow="visible"/>
			</clipPath>
			<rect x="1391.516" y="126.312" clip-path="url(#SVGID_46_)" fill="#00C853" width="270.256" height="422.73"/>
			<rect x="1399.85" y="115.681" clip-path="url(#SVGID_46_)" fill="#43A047" width="121.45" height="426.552"/>
		</g>
	</g>
	<g>
		<rect x="2233.954" y="511.769" fill="#6D4C41" width="40.732" height="100.63"/>
		<rect x="2233.954" y="512.517" fill="#3E2723" width="20.366" height="99.882"/>
		<g>
			<defs>
				<path id="SVGID_49_" d="M2347.794,353.672c0-54.649-14.767-103.152-37.578-133.53c5.566-16.502,8.758-35.689,8.758-56.166
					c0-61.703-28.954-111.723-64.669-111.723c-35.716,0-64.669,50.02-64.669,111.723c0,20.477,3.191,39.664,8.758,56.166
					c-22.811,30.378-37.578,78.881-37.578,133.53c0,92.007,0,166.594,93.49,166.594
					C2352.279,520.266,2347.794,445.679,2347.794,353.672z"/>
			</defs>
			<clipPath id="SVGID_48_">
				<use xlink:href="#SVGID_49_"  overflow="visible"/>
			</clipPath>
			<rect x="2101.066" y="38.406" clip-path="url(#SVGID_48_)" fill="#00C853" width="319.13" height="499.179"/>
			<rect x="2110.907" y="25.853" clip-path="url(#SVGID_48_)" fill="#43A047" width="143.413" height="503.691"/>
		</g>
	</g>
	<g>
		<rect x="2756.411" y="511.769" fill="#6D4C41" width="40.732" height="100.63"/>
		<rect x="2756.411" y="512.517" fill="#3E2723" width="20.366" height="99.882"/>
		<g>
			<defs>
				<path id="SVGID_51_" d="M2870.251,353.672c0-54.649-14.767-103.152-37.578-133.53c5.566-16.502,8.758-35.689,8.758-56.166
					c0-61.703-28.954-111.723-64.67-111.723c-35.716,0-64.669,50.02-64.669,111.723c0,20.477,3.192,39.664,8.758,56.166
					c-22.811,30.378-37.578,78.881-37.578,133.53c0,92.007,0,166.594,93.49,166.594
					C2874.737,520.266,2870.251,445.679,2870.251,353.672z"/>
			</defs>
			<clipPath id="SVGID_50_">
				<use xlink:href="#SVGID_51_"  overflow="visible"/>
			</clipPath>
			<rect x="2623.523" y="38.406" clip-path="url(#SVGID_50_)" fill="#00C853" width="319.13" height="499.179"/>
			<rect x="2633.364" y="25.853" clip-path="url(#SVGID_50_)" fill="#43A047" width="143.413" height="503.691"/>
		</g>
	</g>
	<g>
		<rect x="396.271" y="505.035" fill="#6D4C41" width="43.458" height="107.363"/>
		<rect x="396.271" y="505.833" fill="#3E2723" width="21.729" height="106.566"/>
		<g>
			<defs>
				<path id="SVGID_53_" d="M545.494,402.998c0,97.335-57.081,118.58-127.494,118.58s-127.494-21.244-127.494-118.58
					S418,169.095,418,169.095S545.494,305.662,545.494,402.998z"/>
			</defs>
			<clipPath id="SVGID_52_">
				<use xlink:href="#SVGID_53_"  overflow="visible"/>
			</clipPath>
			<rect x="246.046" y="130.333" clip-path="url(#SVGID_52_)" fill="#A5D6A7" width="319.333" height="405.333"/>
			<rect x="250.046" y="97.667" clip-path="url(#SVGID_52_)" fill="#4DB6AC" width="167.954" height="458"/>
		</g>
	</g>
	<g>
		<rect x="1029.252" y="537.911" fill="#6D4C41" width="30.15" height="74.488"/>
		<rect x="1029.252" y="538.465" fill="#3E2723" width="15.075" height="73.934"/>
		<g>
			<defs>
				<path id="SVGID_55_" d="M1132.781,467.119c0,67.53-39.602,82.269-88.454,82.269c-48.852,0-88.454-14.739-88.454-82.269
					s88.454-162.279,88.454-162.279S1132.781,399.589,1132.781,467.119z"/>
			</defs>
			<clipPath id="SVGID_54_">
				<use xlink:href="#SVGID_55_"  overflow="visible"/>
			</clipPath>
			<rect x="925.027" y="277.947" clip-path="url(#SVGID_54_)" fill="#A5D6A7" width="221.55" height="281.216"/>
			<rect x="927.803" y="255.284" clip-path="url(#SVGID_54_)" fill="#4DB6AC" width="116.525" height="317.755"/>
		</g>
	</g>
	<g>
		<rect x="1633.722" y="537.911" fill="#6D4C41" width="30.15" height="74.488"/>
		<rect x="1633.722" y="538.465" fill="#3E2723" width="15.075" height="73.934"/>
		<g>
			<defs>
				<path id="SVGID_57_" d="M1737.251,467.119c0,67.53-39.602,82.269-88.454,82.269s-88.454-14.739-88.454-82.269
					s88.454-162.279,88.454-162.279S1737.251,399.589,1737.251,467.119z"/>
			</defs>
			<clipPath id="SVGID_56_">
				<use xlink:href="#SVGID_57_"  overflow="visible"/>
			</clipPath>
			<rect x="1529.497" y="277.947" clip-path="url(#SVGID_56_)" fill="#A5D6A7" width="221.55" height="281.216"/>
			<rect x="1532.272" y="255.284" clip-path="url(#SVGID_56_)" fill="#4DB6AC" width="116.525" height="317.755"/>
		</g>
	</g>
	<g>
		<rect x="1956.455" y="484.184" fill="#6D4C41" width="51.897" height="128.215"/>
		<rect x="1956.455" y="485.137" fill="#3E2723" width="25.949" height="127.262"/>
		<g>
			<defs>
				<path id="SVGID_59_" d="M2134.658,362.33c0,116.239-68.167,141.609-152.254,141.609c-84.088,0-152.254-25.37-152.254-141.609
					S1982.404,83,1982.404,83S2134.658,246.091,2134.658,362.33z"/>
			</defs>
			<clipPath id="SVGID_58_">
				<use xlink:href="#SVGID_59_"  overflow="visible"/>
			</clipPath>
			<rect x="1777.054" y="36.71" clip-path="url(#SVGID_58_)" fill="#A5D6A7" width="381.352" height="484.054"/>
			<rect x="1781.831" y="-2.301" clip-path="url(#SVGID_58_)" fill="#4DB6AC" width="200.573" height="546.949"/>
		</g>
	</g>
	<g>
		<rect x="761.542" y="448.202" fill="#6D4C41" width="43.458" height="164.995"/>
		<rect x="761.542" y="449.428" fill="#3E2723" width="21.729" height="163.769"/>
		<path fill="none" stroke="#6D4C41" stroke-width="15" stroke-miterlimit="10" d="M794.847,527.333c0,0,27.667,3.667,36.333-9.667
			c8.667-13.333,6.667-29.333,6.667-29.333"/>
		<path fill="#2E7D32" d="M1000.41,368.319c0-31.333-18.293-58.39-44.78-71.082c5.865-10.557,9.217-22.703,9.217-35.636
			c0-35.785-25.578-65.582-59.446-72.142c-10.521-29.354-38.58-50.358-71.554-50.358c-28.208,0-52.808,15.38-65.922,38.199
			c-1.843-0.119-3.699-0.199-5.578-0.199c-40.041,0-72.5,27.534-72.5,61.5c0,0.295,0.021,0.585,0.026,0.878
			c-20.466,3.671-36.98,18.704-42.78,38.347c-3.18-0.475-6.434-0.726-9.747-0.726c-36.175,0-65.5,29.325-65.5,65.5
			c0,26.055,15.215,48.554,37.243,59.104c-8.98,11.544-14.243,25.51-14.243,40.564c0,39.672,36.489,71.832,81.5,71.832
			c32.684,0,60.859-16.965,73.849-41.441c7.034,1.595,14.365,2.441,21.901,2.441c1.308,0,2.607-0.033,3.902-0.083
			c18.817,23.594,50.469,39.083,86.348,39.083c54.345,0,98.995-35.531,104.022-80.948
			C986.93,418.938,1000.41,395.208,1000.41,368.319z"/>
		<g>
			<path fill="#43A047" d="M693.331,337.281c0,0-0.193-0.59-0.556-1.697c-0.181-0.553-0.405-1.236-0.668-2.038
				c-0.127-0.405-0.284-0.824-0.413-1.301c-0.104-0.498-0.214-1.028-0.33-1.588c-0.224-1.121-0.504-2.373-0.744-3.739
				c-0.129-1.361-0.268-2.833-0.417-4.406c-0.112-1.579-0.015-3.266-0.024-5.052c-0.036-0.898,0.144-1.798,0.23-2.732
				c0.109-0.933,0.22-1.887,0.334-2.862c0.148-0.97,0.398-1.941,0.602-2.944c0.242-0.992,0.38-2.039,0.724-3.043
				c0.672-2.01,1.25-4.148,2.24-6.188c1.689-4.21,4.255-8.312,7.318-12.213c0.812-0.941,1.63-1.891,2.455-2.847
				c0.837-0.946,1.808-1.775,2.72-2.676l1.398-1.33l1.521-1.204c1.037-0.778,2.039-1.621,3.131-2.341
				c1.113-0.691,2.23-1.384,3.351-2.079l0.846-0.515l0.889-0.438l1.783-0.874l1.79-0.872c0.591-0.306,1.235-0.484,1.851-0.732
				l1.871-0.692l0.937-0.344l0.469-0.172l0.234-0.086l0.117-0.043l0.059-0.021c0.075-0.023-0.086,0.021,0.184-0.057
				c1.207-0.314,2.376-0.64,3.613-0.943c1.345-0.256,2.708-0.555,4.036-0.753c1.318-0.144,2.626-0.359,3.943-0.433
				c1.318-0.045,2.63-0.192,3.94-0.143c5.243-0.022,10.374,0.859,15.126,2.287c4.764,1.421,9.115,3.533,12.927,5.97
				c0.477,0.304,0.95,0.607,1.42,0.907c0.45,0.329,0.897,0.656,1.341,0.98c0.89,0.644,1.764,1.28,2.552,1.996
				c0.799,0.7,1.621,1.344,2.333,2.082c0.365,0.358,0.727,0.712,1.086,1.063l0.534,0.524l0.322,0.321l0.233,0.26
				c0.621,0.694,1.228,1.374,1.822,2.039c0.597,0.753,1.18,1.489,1.749,2.206c0.561,0.72,1.011,1.449,1.499,2.141
				c0.49,0.685,0.915,1.384,1.313,2.07c1.68,2.686,2.761,5.232,3.629,7.308c0.805,2.108,1.338,3.791,1.626,4.959
				c0.312,1.158,0.478,1.775,0.478,1.775l-2.867,0.882c0,0-0.236-0.555-0.677-1.596c-0.403-1.052-1.16-2.527-2.1-4.388
				c-1.021-1.823-2.284-4.016-4.024-6.318c-0.418-0.586-0.861-1.182-1.364-1.758c-0.495-0.576-0.976-1.215-1.516-1.783
				c-0.531-0.572-1.075-1.159-1.633-1.759c-0.64-0.617-1.294-1.249-1.963-1.894l-0.252-0.243c0.016,0.017-0.081-0.082,0.029,0.031
				l-0.032-0.027l-0.064-0.053l-0.127-0.107l-0.512-0.431c-0.342-0.289-0.688-0.58-1.036-0.874
				c-0.677-0.611-1.457-1.125-2.208-1.693c-0.746-0.576-1.546-1.105-2.364-1.629c-0.406-0.266-0.815-0.534-1.227-0.804
				c-0.429-0.242-0.862-0.485-1.297-0.73c-3.474-1.97-7.384-3.576-11.555-4.714c-4.177-1.139-8.641-1.656-13.158-1.628
				c-1.131-0.038-2.261,0.115-3.397,0.159c-1.135,0.072-2.261,0.28-3.396,0.409c-1.11,0.179-2.163,0.43-3.251,0.63
				c-1.164,0.298-2.38,0.65-3.568,0.972c0.233-0.067,0.035-0.008,0.074-0.018l-0.051,0.018l-0.101,0.037l-0.202,0.073l-0.405,0.146
				l-0.81,0.291l-1.621,0.579c-0.534,0.208-1.097,0.347-1.607,0.61l-1.548,0.74l-1.548,0.735l-0.774,0.365l-0.731,0.44
				c-0.974,0.589-1.944,1.176-2.911,1.761c-3.69,2.593-7.179,5.42-9.967,8.746c-2.733,3.334-5.218,6.768-6.889,10.402
				c-0.99,1.747-1.553,3.616-2.293,5.354c-0.379,0.868-0.556,1.783-0.839,2.65c-0.245,0.877-0.541,1.729-0.736,2.584
				c-0.165,0.863-0.326,1.708-0.484,2.534c-0.14,0.83-0.365,1.633-0.409,2.435c-0.134,1.598-0.378,3.121-0.41,4.559
				c-0.005,1.438,0.003,2.789-0.022,4.047c0.077,1.227,0.197,2.345,0.276,3.371c0.042,0.513,0.083,0.999,0.12,1.456
				c0.065,0.468,0.161,0.92,0.232,1.334c0.151,0.831,0.279,1.537,0.382,2.11c0.208,1.146,0.318,1.757,0.318,1.757L693.331,337.281z"
				/>
		</g>
		<g>
			<path fill="#66BB6A" d="M797.967,239.007c0,0,0.04-0.62,0.115-1.782c0.037-0.581,0.084-1.298,0.138-2.14
				c0.033-0.423,0.043-0.87,0.101-1.361c0.089-0.501,0.184-1.034,0.284-1.596c0.209-1.124,0.415-2.391,0.701-3.747
				c0.387-1.311,0.805-2.73,1.251-4.245c0.484-1.507,1.201-3.037,1.856-4.699c0.301-0.846,0.802-1.616,1.23-2.45
				c0.448-0.825,0.907-1.67,1.375-2.532c0.498-0.845,1.092-1.654,1.654-2.509c0.594-0.831,1.111-1.751,1.804-2.555
				c1.372-1.616,2.703-3.386,4.381-4.911c3.134-3.28,7.041-6.133,11.335-8.614c1.104-0.572,2.217-1.149,3.337-1.729
				c1.129-0.566,2.339-0.975,3.52-1.472c0.596-0.237,1.193-0.476,1.792-0.714l1.859-0.552c1.252-0.336,2.496-0.747,3.777-1.008
				c1.29-0.227,2.585-0.455,3.884-0.684l0.976-0.163l0.988-0.076l1.981-0.148l1.986-0.143c0.662-0.064,1.326,0.01,1.99,0.009
				l1.994,0.054l0.997,0.029l0.499,0.015l0.249,0.008l0.125,0.004l0.062,0.002c0.079,0.007-0.088-0.013,0.192,0.016
				c1.237,0.158,2.444,0.29,3.705,0.468c1.344,0.263,2.72,0.492,4.027,0.802c1.277,0.357,2.571,0.643,3.821,1.065
				c1.24,0.449,2.512,0.799,3.71,1.333c4.875,1.93,9.31,4.656,13.19,7.748c3.893,3.091,7.147,6.67,9.779,10.35
				c0.329,0.46,0.656,0.917,0.981,1.37c0.296,0.473,0.589,0.943,0.88,1.409c0.586,0.929,1.161,1.844,1.627,2.802
				c0.482,0.947,1.005,1.85,1.391,2.801c0.206,0.468,0.41,0.932,0.613,1.391l0.301,0.685l0.179,0.417l0.12,0.329
				c0.318,0.875,0.629,1.733,0.933,2.571c0.274,0.921,0.542,1.821,0.803,2.698c0.253,0.877,0.4,1.721,0.595,2.545
				c0.2,0.818,0.335,1.625,0.449,2.41c0.56,3.119,0.617,5.884,0.65,8.133c-0.037,2.256-0.168,4.017-0.335,5.209
				c-0.141,1.19-0.217,1.825-0.217,1.825l-2.99-0.248c0,0-0.012-0.603-0.035-1.733c0.017-1.127-0.136-2.777-0.317-4.854
				c-0.269-2.071-0.627-4.578-1.385-7.361c-0.17-0.7-0.359-1.417-0.612-2.14c-0.245-0.719-0.454-1.491-0.744-2.219
				c-0.28-0.728-0.567-1.476-0.861-2.24c-0.364-0.811-0.737-1.64-1.117-2.488l-0.144-0.319c0.009,0.022-0.045-0.106,0.015,0.039
				l-0.02-0.037l-0.039-0.073l-0.078-0.147l-0.315-0.59c-0.21-0.395-0.423-0.794-0.637-1.197c-0.401-0.819-0.934-1.586-1.42-2.393
				c-0.479-0.812-1.024-1.6-1.589-2.392c-0.278-0.398-0.558-0.799-0.84-1.203c-0.309-0.384-0.62-0.771-0.933-1.161
				c-2.492-3.121-5.524-6.066-8.973-8.674c-3.453-2.611-7.405-4.751-11.609-6.405c-1.036-0.456-2.142-0.734-3.212-1.116
				c-1.081-0.355-2.203-0.581-3.305-0.883c-1.097-0.246-2.167-0.406-3.252-0.624c-1.191-0.157-2.451-0.282-3.674-0.424
				c0.241,0.024,0.036,0.006,0.076,0.011l-0.054-0.002l-0.108-0.004l-0.215-0.007l-0.43-0.015l-0.86-0.031l-1.72-0.066
				c-0.573-0.005-1.148-0.086-1.718-0.031l-1.712,0.111l-1.71,0.106l-0.854,0.051l-0.842,0.136
				c-1.123,0.185-2.242,0.369-3.357,0.552c-4.39,1.034-8.68,2.361-12.505,4.411c-3.777,2.078-7.361,4.342-10.264,7.094
				c-1.569,1.253-2.786,2.779-4.12,4.117c-0.675,0.665-1.179,1.449-1.765,2.148c-0.554,0.723-1.145,1.404-1.645,2.125
				c-0.474,0.74-0.938,1.464-1.392,2.173c-0.439,0.718-0.946,1.38-1.285,2.109c-0.719,1.433-1.511,2.756-2.076,4.079
				c-0.54,1.333-1.035,2.591-1.525,3.748c-0.385,1.167-0.689,2.25-0.998,3.231c-0.151,0.492-0.295,0.958-0.43,1.396
				c-0.114,0.459-0.193,0.914-0.281,1.325c-0.169,0.827-0.313,1.531-0.43,2.101c-0.233,1.141-0.358,1.749-0.358,1.749
				L797.967,239.007z"/>
		</g>
		<g>
			<path fill="#66BB6A" d="M799.641,427.955c0,0-0.159-0.466-0.457-1.34c-0.145-0.438-0.325-0.978-0.536-1.612
				c-0.102-0.321-0.227-0.651-0.331-1.03c-0.084-0.4-0.174-0.824-0.269-1.273c-0.183-0.899-0.409-1.906-0.603-3.004
				c-0.122-1.083-0.219-2.262-0.336-3.527c-0.089-1.265-0.012-2.616-0.019-4.049c-0.028-0.72,0.117-1.441,0.189-2.19
				c0.09-0.748,0.181-1.514,0.275-2.296c0.121-0.778,0.323-1.557,0.489-2.361c0.196-0.796,0.311-1.636,0.589-2.442
				c0.543-1.613,1.021-3.327,1.823-4.962c1.376-3.376,3.452-6.667,5.946-9.784c0.659-0.753,1.324-1.511,1.993-2.276
				c0.68-0.756,1.466-1.418,2.206-2.137l1.134-1.062l1.232-0.96c0.839-0.621,1.652-1.294,2.536-1.867
				c0.901-0.55,1.805-1.103,2.712-1.657c0.889-0.589,1.897-0.961,2.85-1.443c0.964-0.461,1.927-0.931,2.95-1.253l1.514-0.537
				l0.758-0.267l0.379-0.133l0.19-0.066l0.095-0.033l0.047-0.017c0.072-0.021-0.094,0.023,0.173-0.051l2.869-0.72
				c1.093-0.199,2.206-0.431,3.282-0.582c2.119-0.279,4.248-0.41,6.358-0.374c4.223,0.05,8.344,0.819,12.15,2.025
				c3.817,1.197,7.286,2.961,10.314,4.972c0.379,0.251,0.755,0.501,1.128,0.749c0.357,0.271,0.712,0.539,1.064,0.806
				c0.705,0.53,1.398,1.052,2.02,1.64c0.631,0.575,1.279,1.105,1.84,1.709c0.288,0.293,0.572,0.583,0.854,0.87l0.42,0.429
				l0.265,0.274l0.18,0.21c0.48,0.56,0.949,1.108,1.408,1.644c0.469,0.617,0.928,1.22,1.375,1.808
				c0.816,1.201,1.575,2.303,2.179,3.426c1.298,2.18,2.111,4.241,2.763,5.917c0.601,1.702,0.992,3.056,1.199,3.995
				c0.218,0.932,0.334,1.429,0.334,1.429l-2.877,0.85c0,0-0.191-0.434-0.549-1.248c-0.32-0.824-0.922-1.979-1.665-3.433
				c-0.807-1.425-1.807-3.135-3.169-4.931c-0.64-0.918-1.451-1.827-2.255-2.758c-0.411-0.442-0.833-0.895-1.264-1.36
				c-0.505-0.489-1.022-0.989-1.55-1.5l-0.199-0.192c0.018,0.02-0.076-0.078,0.035,0.038l-0.025-0.021l-0.05-0.042l-0.099-0.083
				l-0.399-0.336c-0.266-0.225-0.535-0.452-0.807-0.681c-0.526-0.476-1.134-0.876-1.719-1.318c-0.581-0.448-1.201-0.862-1.837-1.272
				c-0.315-0.208-0.632-0.417-0.952-0.628c-0.333-0.189-0.669-0.379-1.007-0.571c-2.695-1.541-5.729-2.793-8.957-3.7
				c-3.234-0.903-6.692-1.327-10.19-1.325c-0.875-0.035-1.752,0.08-2.631,0.108c-0.879,0.053-1.752,0.206-2.632,0.291
				c-0.856,0.127-1.659,0.307-2.495,0.447l-2.829,0.731c0.237-0.066,0.043-0.01,0.086-0.021l-0.039,0.014l-0.079,0.028l-0.157,0.055
				l-0.315,0.11l-0.629,0.22l-1.26,0.436c-0.856,0.252-1.652,0.645-2.452,1.023l-1.203,0.557l-0.604,0.273l-0.571,0.331
				c-0.761,0.443-1.521,0.885-2.277,1.325c-2.89,1.96-5.631,4.106-7.835,6.65c-2.157,2.554-4.144,5.179-5.497,7.979
				c-0.799,1.342-1.258,2.788-1.866,4.128c-0.311,0.669-0.463,1.378-0.699,2.048c-0.206,0.679-0.452,1.337-0.619,2
				c-0.262,1.339-0.609,2.617-0.784,3.858c-0.135,1.243-0.357,2.428-0.41,3.551c-0.032,1.123-0.05,2.179-0.099,3.163
				c0.033,0.956,0.102,1.828,0.139,2.63c0.021,0.401,0.042,0.781,0.06,1.139c0.041,0.37,0.108,0.732,0.155,1.06
				c0.102,0.661,0.188,1.223,0.258,1.679c0.133,0.913,0.204,1.401,0.204,1.401L799.641,427.955z"/>
		</g>
	</g>
</g>
</svg>
