<?xml version="1.0" encoding="utf-8"?>
<!-- Generator: Adobe Illustrator 17.0.0, SVG Export Plug-In . SVG Version: 6.00 Build 0)  -->
<!DOCTYPE svg PUBLIC "-//W3C//DTD SVG 1.1//EN" "http://www.w3.org/Graphics/SVG/1.1/DTD/svg11.dtd">
<svg version="1.1" id="Layer_1" xmlns="http://www.w3.org/2000/svg" xmlns:xlink="http://www.w3.org/1999/xlink" x="0px" y="0px"
	 width="14.682px" height="19.281px" viewBox="0 0 14.682 19.281" enable-background="new 0 0 14.682 19.281" xml:space="preserve">
<rect x="0" y="5.042" fill="#3E2723" width="14.682" height="14.24"/>
<path fill="#558B2F" d="M6.032,4.01c0,0,0.723-1.51,0.968-2.26C7.245,1,7.344,0.125,7.344,0.125s0.15,0.422,0.26,1.547
	s0.032,1.725,0.032,1.725l1.208-2.143l-0.5,1.777l0.208,0.367l1.042-1.495v1.495l1.667,0.197l-0.458-2.341l0.792,1.41l-0.292-1.692
	l1.714,2.848l-0.505,0.222L10.72,4.271L6.032,4.01z"/>
<polygon fill="#558B2F" points="14.604,2.739 14.146,3.397 13.938,3.03 14.438,1.253 13.229,3.397 12.938,0.125 11.625,4.01 
	14.604,4.176 "/>
<path fill="#558B2F" d="M5.2,1.632c-0.241-0.4-0.174-0.679-0.174-0.679S4.87,1.266,4.917,1.635c0.047,0.369,0.177,1.028,0.177,1.028
	s-0.18-0.32-0.405-0.722C4.464,1.54,4.432,1.094,4.432,1.094S4.37,1.453,4.437,1.938s0.324,1.656,0.324,1.656L3.094,3.397
	c0,0,0.127-0.117,0.182-0.787S3.229,1.75,3.229,1.75L2.052,3.397L1.844,3.03c0,0,0.307-0.327,0.307-1.092
	c0-0.766-0.078-1.094-0.078-1.094S1.983,1.37,1.855,2.121C1.726,2.872,1.136,3.397,1.136,3.397S0.787,3.404,0.87,2.15
	c0.094-1.416-0.026-2.025-0.026-2.025S0.523,1.526,0.339,2.328C0.269,2.631,0.137,2.944,0,3.217v0.819l4.219,0.235l1.792-0.229
	L6.516,3.82C6.516,3.82,5.441,2.032,5.2,1.632z"/>
<path fill="#9CCC65" d="M7.26,2.219c-0.188-0.022-0.283-0.076-0.625,0.25C6.293,2.795,6.307,3.432,6.307,3.432
	s-0.063-0.37-0.203-0.651S5.729,1.828,5.443,1.953C5.156,2.078,5.245,2.609,5.245,2.609s-0.406-0.313-0.5-0.141
	C4.679,2.589,4.856,3.356,4.97,3.813C4.878,3.485,4.727,3.043,4.589,3.063C4.37,3.094,4.385,3.219,4.159,3.487
	C3.933,3.756,3.845,4.531,3.845,4.531S3.99,3.13,3.76,3.094C3.328,3.025,3.229,3.26,2.917,3.562C2.724,3.748,2.633,4.026,2.586,4.22
	c0.109-0.549,0.372-2.023,0.049-2.142C2.24,1.932,1.99,2.323,1.51,2.99C1.333,3.237,1.236,3.521,1.184,3.78
	c0.004-0.523-0.054-1.123-0.34-1.234C0.561,2.437,0.249,2.978,0,3.572v1.47h7.339c0,0,0.016-0.885,0.109-1.182
	S7.448,2.241,7.26,2.219z"/>
<path fill="#9CCC65" d="M14.682,2.613c-0.027-0.234-0.071-0.409-0.141-0.417c-0.188-0.022-0.095-0.054-0.438,0.272
	c-0.342,0.326-0.328,0.964-0.328,0.964s-0.063-0.37-0.203-0.651s-0.375-0.953-0.661-0.828c-0.286,0.125-0.198,0.656-0.198,0.656
	s-0.406-0.313-0.5-0.141c-0.065,0.12,0.111,0.888,0.225,1.345c-0.092-0.328-0.243-0.771-0.381-0.751
	c-0.219,0.031-0.203,0.156-0.429,0.425c-0.226,0.269-0.314,1.044-0.314,1.044s0.144-1.401-0.085-1.438
	c-0.433-0.069-0.531,0.167-0.844,0.469c-0.193,0.186-0.284,0.463-0.331,0.658c0.109-0.549,0.372-2.023,0.049-2.142
	C9.708,1.932,9.458,2.323,8.979,2.99C8.802,3.237,8.705,3.521,8.652,3.78c0.004-0.523-0.054-1.123-0.34-1.234
	C7.722,2.318,7,4.927,7,4.927l0.385,0.115h7.297V2.613z"/>
</svg>
